<svg width="87" height="90" viewBox="0 0 87 90" fill="none" xmlns="http://www.w3.org/2000/svg">
<g id="Group 15">
<path id="Vector" fill-rule="evenodd" clip-rule="evenodd" d="M69.4217 61.6653C71.5636 61.6653 73.5174 62.8886 74.4528 64.8155L81.6019 79.5412C83.945 84.3675 80.4297 89.9817 75.0647 89.9817C71.7387 89.9817 68.8372 87.7237 68.0204 84.4995L64.0002 68.6315C63.1049 65.0974 65.7759 61.6653 69.4217 61.6653Z" fill="#D6B25E"/>
<path id="Vector_2" fill-rule="evenodd" clip-rule="evenodd" d="M44.9065 64.8592C44.7002 64.5885 44.3014 64.649 44.2134 64.9777C44.111 65.3605 44.0168 65.7375 43.863 65.9685L37.6436 75.189C36.8242 76.4039 36.2969 77.792 36.1031 79.2446L35.8136 81.4143C35.207 85.9603 38.7435 90 43.3298 90H47.6006C49.9301 90 51.7256 87.9467 51.4147 85.638L51.276 84.6081C51.1841 83.9249 50.7233 83.3732 50.1448 82.9984C48.5243 81.9409 47.3408 80.0264 47.0859 77.8019L44.9917 65.0568C44.9799 64.985 44.9506 64.9171 44.9065 64.8592Z" fill="#D6B25E"/>
<path id="Vector_3" fill-rule="evenodd" clip-rule="evenodd" d="M17.2489 61.6653C15.107 61.6653 13.1532 62.8886 12.2177 64.8155L5.06867 79.5412C2.72559 84.3675 6.24085 89.9817 11.6059 89.9817C14.9318 89.9817 17.8333 87.7237 18.6501 84.4995L22.6703 68.6315C23.5657 65.0974 20.8946 61.6653 17.2489 61.6653Z" fill="#D6B25E"/>
<path id="Vector_4" fill-rule="evenodd" clip-rule="evenodd" d="M41.9961 0.0091509C41.9994 0.0124733 41.997 0.018149 41.9923 0.018106C38.5738 -0.0132101 35.3028 1.99164 33.8479 5.34238C31.9179 9.80956 33.9754 15.0061 38.4364 16.9388C42.9155 18.8715 48.0866 16.8112 50.0167 12.3258C51.9285 7.85858 49.8892 2.66207 45.41 0.729335C44.3035 0.257048 43.1428 0.020017 41.9999 0.000214675C41.9951 0.000133106 41.9927 0.00581913 41.9961 0.0091509Z" fill="#D6B25E"/>
<path id="Vector_5" fill-rule="evenodd" clip-rule="evenodd" d="M39.0381 22.5639C39.0262 22.5699 39.013 22.573 38.9996 22.573C38.1873 22.5775 37.394 22.8504 36.7439 23.3206L26.6749 30.8145C25.9101 31.3979 25.3821 32.2367 25.2 33.1848L21.9408 45.4741C20.9758 50.4883 28.4957 51.9287 29.4607 46.9145L32.3193 36.5466C32.402 36.2466 32.5817 35.9824 32.8303 35.7953C33.759 35.0962 35.087 35.7587 35.087 36.9211V46.3493C35.087 47.3521 35.433 48.3185 36.052 49.1025L45.9696 61.7883C47.0009 63.1074 47.6844 64.6643 47.9575 66.3163L49.7991 77.4554C50.5274 83.6912 59.941 82.1414 58.63 76.015L56.2265 61.2095C56.0991 60.4619 55.7896 59.7691 55.3344 59.1674L47.2951 48.9198C46.8414 48.3415 46.5964 47.6268 46.5999 46.8918L46.624 41.8607C46.6318 40.2363 48.7235 39.5838 49.6534 40.9158C49.963 41.3534 50.3453 41.6998 50.8005 41.9733L59.0124 47.0057C63.3641 49.6678 67.3517 43.1402 62.9999 40.4782L57.2469 36.9575C56.0696 36.237 55.0542 35.2807 54.2646 34.1486L47.3228 24.1958C46.6127 23.1747 45.4474 22.5547 44.191 22.5547H39.0767C39.0633 22.5547 39.0501 22.5579 39.0381 22.5639Z" fill="#D6B25E"/>
<path id="Vector_6" fill-rule="evenodd" clip-rule="evenodd" d="M35.7056 52.9678C35.6975 52.9597 35.6837 52.9634 35.6807 52.9745L33.9603 59.4352C33.85 59.8492 33.6717 60.2421 33.4325 60.5976L24.2527 74.2462C20.4837 79.2786 28.4406 84.6574 31.6816 79.2603L41.6596 64.4731C42.7032 62.9224 41.9988 61.0112 40.847 59.5391L35.7056 52.9678Z" fill="#D6B25E"/>
</g>
</svg>
