<svg width="90" height="90" viewBox="0 0 90 90" fill="none" xmlns="http://www.w3.org/2000/svg">
<g id="My Home Apas - Amenities Icons - 2">
<g id="Group">
<path id="Vector" d="M51.112 63.1667C54.6238 61.6334 56.2382 61.8501 59.1675 63.3834C62.0967 64.9167 64.9428 64.9167 68.388 63.1667C70.7347 61.7667 73.7306 61.8501 76.0773 63.3167C77.4754 64.1167 79.0066 64.4834 80.5378 64.4167V59.2834C77.6085 59.2834 76.3602 58.3334 76.3602 58.3334C73.3644 56.5001 70.6515 56.8667 66.8402 58.7667C64.7264 59.8667 61.2812 59.5667 58.8679 58.3334C55.5725 56.5667 53.6751 57.0167 50.1633 58.5501C47.6835 59.7167 44.8208 59.7167 42.3409 58.5501C38.8291 57.0167 37.0649 56.5667 33.7029 58.3334L33.4033 63.3834C36.2494 61.8501 37.8638 61.6167 41.3756 63.0834C44.4546 64.7001 48.0995 64.7667 51.112 63.1501" fill="#D6B25E"/>
<path id="Vector_2" d="M51.1119 76.1334C54.6236 74.6001 56.2381 74.8167 59.1673 76.3501C62.0966 77.8834 64.9426 77.8834 68.3878 76.1334C70.8011 74.8167 73.797 74.8834 76.1437 76.2834C77.5418 77.0834 79.073 77.4501 80.6042 77.3834V72.2501C77.6749 72.2501 76.4266 71.3001 76.4266 71.3001C73.4308 69.4667 70.7179 69.8334 66.9066 71.8167C64.7928 72.9167 61.3476 72.6167 58.9343 71.3834C55.6389 69.6167 53.7415 70.0667 50.2297 71.6001C47.7499 72.7667 44.8872 72.7667 42.4073 71.6001C38.8955 70.0667 37.1313 69.6167 33.7693 71.3834L33.4697 76.3667C36.3158 74.8334 37.9302 74.6001 41.442 76.1501C44.4378 77.6834 48.0994 77.7667 51.0952 76.1501" fill="#D6B25E"/>
<path id="Vector_3" d="M81.5535 35.6835C81.5535 40.0835 78.0417 43.6001 73.6479 43.6001C69.254 43.6001 65.7422 40.0835 65.7422 35.6835C65.7422 31.2835 69.254 27.7668 73.6479 27.7668C78.0417 27.8335 81.5535 31.3501 81.5535 35.6835Z" fill="#D6B25E"/>
<path id="Vector_4" d="M33.7032 49.6834C36.9986 47.9167 38.8294 48.3667 42.3412 49.9001C44.8211 51.0667 47.6837 51.0667 50.1636 49.9001C53.6754 48.3667 55.5062 47.9167 58.8682 49.6834C61.2815 50.9334 64.7267 51.2167 66.8404 50.1167C66.9902 50.0501 67.0568 50.0501 67.14 49.9667L67.2066 49.9001L53.0097 23.6667L66.907 20.8834C69.1705 20.4501 70.6352 18.1667 70.2024 15.9001C69.7697 13.6334 67.4895 12.1667 65.226 12.6001L42.5409 17.1501C40.8599 17.3001 39.6949 18.7667 39.828 20.4501C39.8946 20.9667 40.0444 21.4001 40.3439 21.7667L47.5839 35.1001L24.6658 48.1667C25.6144 48.4667 23.7836 49.3167 24.6658 49.7501C26.8627 50.8501 31.2732 50.9334 33.6865 49.6834" fill="#D6B25E"/>
</g>
<g id="Group_2">
<path id="Vector_5" d="M25.2478 38.8334C25.2478 45.6167 25.2478 52.4001 25.2478 59.2001C25.2478 59.8001 25.3976 60.2334 25.847 60.6667C29.0592 63.8001 29.7915 68.7167 27.7111 72.7334C25.6639 76.6834 21.2534 78.85 16.8096 78.0834C12.4656 77.3334 8.9871 73.7167 8.43786 69.2834C8.00513 65.85 9.07032 62.9001 11.5169 60.4501C11.7832 60.1834 11.9496 59.6501 11.9496 59.2501C11.9663 45.6834 11.9496 32.1001 11.9829 18.5334C11.9829 15.6501 13.381 13.5334 16.0107 12.4001C18.6403 11.2667 21.1202 11.7667 23.2173 13.7167C24.632 15.0334 25.2811 16.7167 25.2811 18.6501C25.2811 25.3834 25.2811 32.1167 25.2811 38.8501L25.2478 38.8334ZM13.8137 39.3501C13.8137 46.0667 13.7971 52.7834 13.8304 59.4834C13.8304 60.4834 13.5807 61.1501 12.8151 61.8334C10.0523 64.2667 9.38654 68.4667 11.1008 71.7834C12.8318 75.1167 16.6431 76.9667 20.2215 76.1667C23.5835 75.4167 25.8137 73.3667 26.6958 70.05C27.5779 66.6834 26.5294 63.8001 23.9829 61.5001C23.5169 61.0834 23.3338 60.6834 23.3338 60.0667C23.3338 46.4834 23.3338 32.9001 23.3338 19.3334C23.3338 18.9001 23.3338 18.4667 23.3005 18.0334C23.1008 16.1334 22.1188 14.7834 20.3713 14.0667C17.1424 12.7334 13.8137 15.0834 13.7971 18.6834C13.7804 25.5834 13.7971 32.4667 13.7971 39.3667L13.8137 39.3501Z" fill="#D6B25E"/>
<path id="Vector_6" d="M15.6779 39.4H21.4699V40.4C21.4699 47.2167 21.4699 54.0334 21.4699 60.85C21.4699 61.5167 21.6197 61.9834 22.1689 62.4C24.0163 63.8334 25.1315 65.6834 25.1148 68.0834C25.0815 71.5 22.1856 74.3834 18.7237 74.4167C15.162 74.45 12.2327 71.7167 12.1162 68.25C12.033 66 12.8319 64.1334 14.6128 62.7667C15.4449 62.1334 15.7279 61.45 15.7279 60.4C15.6779 53.7334 15.6946 47.0834 15.6946 40.4167C15.6946 40.0834 15.6946 39.7667 15.6946 39.3834L15.6779 39.4Z" fill="#D6B25E"/>
<path id="Vector_7" d="M29.4426 17.9501H27.2956C26.7257 17.9501 26.2637 18.4127 26.2637 18.9834V19.0001C26.2637 19.5708 26.7257 20.0334 27.2956 20.0334H29.4426C30.0125 20.0334 30.4745 19.5708 30.4745 19.0001V18.9834C30.4745 18.4127 30.0125 17.9501 29.4426 17.9501Z" fill="#D6B25E"/>
<path id="Vector_8" d="M29.4426 27.05H27.2956C26.7257 27.05 26.2637 27.5127 26.2637 28.0834V28.1001C26.2637 28.6707 26.7257 29.1334 27.2956 29.1334H29.4426C30.0125 29.1334 30.4745 28.6707 30.4745 28.1001V28.0834C30.4745 27.5127 30.0125 27.05 29.4426 27.05Z" fill="#D6B25E"/>
<path id="Vector_9" d="M29.4426 36.1667H27.2956C26.7257 36.1667 26.2637 36.6294 26.2637 37.2001V37.2167C26.2637 37.7874 26.7257 38.2501 27.2956 38.2501H29.4426C30.0125 38.2501 30.4745 37.7874 30.4745 37.2167V37.2001C30.4745 36.6294 30.0125 36.1667 29.4426 36.1667Z" fill="#D6B25E"/>
<path id="Vector_10" d="M29.4426 54.3834H27.2956C26.7257 54.3834 26.2637 54.8461 26.2637 55.4168V55.4334C26.2637 56.0041 26.7257 56.4668 27.2956 56.4668H29.4426C30.0125 56.4668 30.4745 56.0041 30.4745 55.4334V55.4168C30.4745 54.8461 30.0125 54.3834 29.4426 54.3834Z" fill="#D6B25E"/>
</g>
</g>
</svg>
