<svg width="90" height="90" viewBox="0 0 90 90" fill="none" xmlns="http://www.w3.org/2000/svg">
<g id="My Home Apas - Amenities Icons - 14">
<path id="Vector" fill-rule="evenodd" clip-rule="evenodd" d="M10.4518 81.6667V77.2H8.27148V70.8667H13.7971C19.3228 70.8667 23.6834 67.1 28.8262 61.85C28.9927 61.6834 29.1591 61.5167 29.3255 61.35L28.9261 60.2834C28.7929 60.5667 28.5433 60.7667 28.2603 60.8667L24.8651 61.95C24.2659 62.1334 23.6335 61.8167 23.4504 61.2167C23.2673 60.6167 23.5835 59.9834 24.1827 59.8L27.0454 58.8834L28.0773 55.8834C28.1771 55.5834 28.3935 55.35 28.6598 55.2334C28.8262 55.0667 29.0093 54.9167 29.2257 54.8C30.2909 54.2167 31.5391 54.75 31.9885 55.9667L32.7208 57.9334C33.9191 56.7667 35.1508 55.65 36.4157 54.6667C38.9455 52.7167 41.8914 51.0667 45.3532 50.8V42.4167V30.9334L42.5904 33.6834L38.7291 29.8167L60.1826 8.33337L81.6361 29.8167L77.7748 33.6834L75.1951 31.1V81.65H70.1854V57.3H65.4753V81.45H62.546V77.7167H57.9191V81.45H54.9898V57.3H50.3629V81.65H45.3532V57.3V57.1667C43.7721 57.4 42.141 58.2334 40.277 59.6667C38.0467 61.4 35.8831 63.6834 33.3533 66.2667C28.9594 70.7334 23.2507 76.3667 15.4948 77.1V81.65H10.4851L10.4518 81.6667ZM62.5294 74.7834V70.6667H57.9025V74.7834H62.5294ZM62.5294 67.7334V63.6167H57.9025V67.7334H62.5294ZM62.5294 60.6834V57.3H57.9025V60.6834H62.5294ZM25.5142 51.6667C25.3477 50.1334 26.4129 48.7834 27.8942 48.6334C29.3755 48.4834 30.7236 49.6 30.9067 51.1334C31.0731 52.6667 30.0079 54.0167 28.5266 54.1667C27.0454 54.3167 25.6972 53.2 25.5142 51.6667ZM54.9732 52.95V45.1H50.3463V52.95H54.9732ZM61.8636 52.95V45.1H57.9025V52.95H61.8636ZM70.0855 52.95V45.1H67.0065V52.95H70.0855ZM57.7693 41.1334L60.7485 40.6834L62.2298 37.8834C62.3796 37.6 62.6292 37.4167 62.9122 37.3334C63.0952 37.1834 63.3116 37.0834 63.528 37C64.6764 36.6 65.8248 37.3167 66.0911 38.5834L66.8733 42.4167H70.1687V26.1L60.1826 16.1L50.3629 25.9334V42.4334H56.8539C56.7707 41.8167 57.1868 41.25 57.8026 41.15L57.7693 41.1334ZM62.4128 42.4167V42.3667C62.4128 42.3667 62.3629 42.4 62.3629 42.4167H62.4128ZM63.6445 36.3167C62.08 36.2334 60.865 34.9167 60.9482 33.3834C61.0148 31.85 62.3463 30.6667 63.9108 30.7667C65.4753 30.85 66.6902 32.1667 66.607 33.7C66.5404 35.2334 65.209 36.4167 63.6445 36.3167Z" fill="#D6B25E"/>
</g>
</svg>
