<svg width="90" height="90" viewBox="0 0 90 90" fill="none" xmlns="http://www.w3.org/2000/svg">
<g id="My Home Apas - Amenities Icons - 5">
<path id="Vector" d="M66.4576 10.4C67.5061 10.9667 68.0887 11.9 67.5727 13.1667C67.2898 13.85 66.9902 14.5334 66.674 15.2167C66.5741 15.4334 66.624 15.5167 66.8237 15.6C67.0734 15.7 67.3231 15.7834 67.5561 15.9167C67.839 16.0834 67.9722 16 68.1219 15.75C68.5713 15.0667 69.1538 14.5 69.9694 14.2667C71.3674 13.85 72.6823 14.0167 73.864 14.8667C74.7294 15.5 75.0124 16.4334 74.8959 17.4667C74.8459 17.95 74.7294 18.4334 74.6129 18.9667C75.0623 19.15 75.5283 19.35 76.011 19.5334C76.0609 19.55 76.194 19.4334 76.2273 19.3667C76.5436 18.6667 76.8431 17.9667 77.1594 17.2667C77.4423 16.6 77.9083 16.15 78.6406 16.0334C78.8237 16 79.0401 16 79.2065 16.05C79.7391 16.25 80.305 16.4167 80.7544 16.7334C81.4201 17.1834 81.7696 17.95 81.3036 19.0167C80.4215 21.0334 79.556 23.0667 78.6739 25.0834C78.2412 26.0667 77.3258 26.4667 76.3106 26.1C76.0276 26 75.7447 25.8834 75.4617 25.75C74.6462 25.3667 74.1136 24.3334 74.5297 23.3834C74.6961 23 74.8459 22.6167 75.0124 22.2334C75.1788 21.85 75.3286 21.4667 75.495 21.0667C75.0623 20.8834 74.6462 20.6834 74.2135 20.5C74.0137 20.4167 73.9805 20.5667 73.9139 20.7C73.3979 21.8 72.9319 22.9167 72.3494 23.9834C70.3522 27.65 68.3383 31.3 66.2745 34.9334C64.4604 38.1334 62.5963 41.3167 60.4826 44.3334C59.7003 45.45 58.8349 46.5167 57.9361 47.55C57.6032 47.9334 57.1039 48.15 56.6878 48.45C56.6213 48.5 56.5547 48.5834 56.5381 48.6667C56.5048 48.7667 56.5381 48.8834 56.5381 49C56.5381 59.15 56.5381 69.3167 56.5381 79.4667V79.9334C56.4216 79.9334 56.305 79.9334 56.2052 79.9334C48.649 79.9334 41.0762 79.9334 33.5201 79.9334C33.2871 79.9334 33.1706 79.9167 33.1706 79.6334C33.1706 69.9334 33.1706 60.2334 33.1706 50.5334C33.1706 50.15 33.1706 49.7834 33.1706 49.4C33.1706 49.3334 33.1539 49.2667 33.1206 49.15C32.4882 49.8334 31.889 50.4834 31.2898 51.1334C29.6754 52.9 27.9112 54.5167 26.0638 56.0167C24.2663 57.4667 22.1692 58.1834 19.9057 58.3834C18.2912 58.5334 17.1262 57.7167 16.3107 56.4C15.6116 55.2667 15.2788 54 15.0957 52.7C14.6962 49.8167 14.5797 46.9 14.4965 44C14.4466 41.85 14.2802 39.7167 14.1803 37.5667C14.1803 37.4 14.1803 37.2167 14.1803 37.0167H12.8322C12.8322 37.2667 12.8322 37.5 12.8322 37.75C12.8322 38.3167 12.8488 38.8667 12.8322 39.4334C12.7989 40.5 12.1664 41.1834 11.1179 41.3167C10.7184 41.3667 10.319 41.35 9.9362 41.3167C9.20388 41.2334 8.72122 40.7834 8.45493 40.1C8.40499 39.9834 8.35506 39.8834 8.32178 39.7667C8.32178 37.2334 8.45493 32.1834 8.48821 32.0834C8.72122 31.45 9.1706 31.05 9.83634 30.9167C10.1859 30.85 10.5687 30.85 10.9348 30.85C12.0999 30.8834 12.8322 31.6167 12.8655 32.7834C12.8821 33.5667 12.8655 34.35 12.8655 35.15C12.8655 35.3667 12.9154 35.4334 13.1318 35.4334C13.4813 35.4167 13.8474 35.4334 14.1969 35.4334C14.3634 35.4334 14.4133 35.3834 14.4466 35.2167C14.613 34.5 14.9459 33.8834 15.6116 33.5C17.0763 32.6667 18.6408 32.4667 20.2718 32.8167C20.7878 32.9334 21.1872 33.25 21.3537 33.7667C21.4868 34.2334 21.5367 34.7167 21.6532 35.2C21.6699 35.2834 21.7531 35.45 21.803 35.45C22.2857 35.4667 22.7684 35.45 23.2344 35.45C23.2677 35.3834 23.2677 35.3834 23.2677 35.3667C23.2677 34.5334 23.2677 33.6834 23.2677 32.85C23.2677 31.85 23.9168 31.05 24.8821 30.9167C25.3148 30.85 25.7642 30.8667 26.1969 30.9167C26.9292 31 27.4452 31.4167 27.6948 32.1167C27.8113 32.45 27.828 32.8167 27.828 33.1667C27.828 34.65 27.828 36.15 27.828 37.6334C27.828 38.3 27.828 38.9667 27.7947 39.6167C27.7448 40.5 27.0957 41.2 26.2302 41.3C25.8474 41.35 25.448 41.3667 25.0652 41.3334C24.1331 41.2667 23.484 40.6667 23.3176 39.7334C23.2677 39.4834 23.2677 39.2334 23.2677 38.9667C23.2677 38.3167 23.2677 37.6667 23.2677 37.0167H21.7365C21.8862 40.55 22.0194 44.0667 22.1692 47.65C22.319 47.5 22.4355 47.3834 22.552 47.2667C24.3828 45.4334 26.1969 43.6167 28.0277 41.7834C29.1262 40.6834 30.3412 39.75 31.889 39.35C33.1206 39.0167 34.3689 38.8667 35.6338 38.8667C37.0318 38.8667 38.38 39.15 39.6615 39.75C40.3772 40.0834 41.1095 40.3667 41.8252 40.6667C43.3397 41.3 44.8876 41.4334 46.4521 40.9C47.3009 40.6167 48.1331 40.2834 48.9819 39.9834C49.864 39.65 50.7128 39.25 51.6116 39.0334C52.2274 38.8834 52.9098 38.9334 53.5589 38.95C54.5741 39 55.4396 38.6834 56.122 37.9667C56.6213 37.45 57.1039 36.9167 57.4701 36.3C58.502 34.5334 59.5505 32.7667 60.4659 30.9334C62.6962 26.5 64.8598 22.0334 67.0568 17.5667C67.09 17.5167 67.09 17.45 67.1067 17.3834C66.8237 17.25 66.5408 17.1334 66.2579 17C66.0415 16.9 65.9416 16.9334 65.8418 17.1667C65.5588 17.85 65.2593 18.5334 64.943 19.2167C64.6268 19.8834 64.0776 20.3 63.3619 20.2834C62.8792 20.2834 62.3966 20.05 61.9472 19.8834C60.9819 19.5 60.3827 18.4334 60.882 17.3C61.4812 15.95 62.0637 14.5834 62.6296 13.2334C63.0956 12.1334 63.4285 10.5167 64.7267 10.1334C65.3425 9.95002 65.9084 10.1 66.4576 10.4Z" fill="#D6B25E"/>
<path id="Vector_2" d="M45.7031 36.4501C40.7933 36.4001 36.649 32.4334 36.6324 27.3334C36.6157 22.1834 40.8432 18.1501 45.6698 18.1667C50.6961 18.1667 54.857 22.1334 54.8071 27.3834C54.7572 32.7834 50.3799 36.4167 45.6864 36.4501H45.7031Z" fill="#D6B25E"/>
</g>
</svg>
