<svg width="29" height="29" viewBox="0 0 29 29" fill="none" xmlns="http://www.w3.org/2000/svg">
<g id="Group">
<path id="Vector" d="M20.4109 9.64711C20.2686 9.28012 20.0964 9.02547 19.8267 8.74836C19.5571 8.47125 19.295 8.30647 18.928 8.16417C18.6509 8.05932 18.239 7.932 17.475 7.89455C16.6512 7.8571 16.404 7.84961 14.3144 7.84961C12.2248 7.84961 11.9777 7.8571 11.1538 7.89455C10.3899 7.932 9.97794 8.05932 9.70083 8.16417C9.33384 8.30647 9.07919 8.47873 8.80208 8.74836C8.53245 9.02547 8.36019 9.28012 8.21789 9.64711C8.11304 9.92422 7.98572 10.3362 7.94827 11.1001C7.91082 11.9239 7.90332 12.1711 7.90332 14.2607C7.90332 16.3503 7.91082 16.5974 7.94827 17.4213C7.98572 18.1852 8.11304 18.5972 8.21789 18.8743C8.36019 19.2413 8.53245 19.4959 8.80208 19.773C9.07919 20.0501 9.33384 20.2149 9.70083 20.3572C9.97794 20.4621 10.3899 20.5894 11.1538 20.6268C11.9777 20.6643 12.2248 20.6718 14.3144 20.6718C16.404 20.6718 16.6512 20.6643 17.475 20.6268C18.239 20.5894 18.6509 20.4621 18.928 20.3572C19.295 20.2149 19.5496 20.0427 19.8267 19.773C20.1039 19.4959 20.2686 19.2413 20.4109 18.8743C20.5158 18.5972 20.6431 18.1852 20.6806 17.4213C20.718 16.5974 20.7255 16.3503 20.7255 14.2607C20.7255 12.1711 20.718 11.9239 20.6806 11.1001C20.6431 10.3362 20.5158 9.92422 20.4109 9.64711ZM14.3219 18.2676C12.105 18.2676 10.3075 16.4701 10.3075 14.2532C10.3075 12.0363 12.105 10.2388 14.3219 10.2388C16.5388 10.2388 18.3363 12.0363 18.3363 14.2532C18.3363 16.4701 16.5388 18.2676 14.3219 18.2676ZM18.4936 11.0177C17.9768 11.0177 17.5574 10.5983 17.5574 10.0815C17.5574 9.56472 17.9768 9.14531 18.4936 9.14531C19.0104 9.14531 19.4298 9.56472 19.4298 10.0815C19.4298 10.5983 19.0104 11.0177 18.4936 11.0177Z" fill="#D6B25E"/>
<path id="Vector_2" d="M14.3144 11.6465C12.8764 11.6465 11.708 12.8149 11.708 14.2529C11.708 15.6909 12.8764 16.8592 14.3144 16.8592C15.7524 16.8592 16.9208 15.6909 16.9208 14.2529C16.9208 12.8149 15.7524 11.6465 14.3144 11.6465Z" fill="#D6B25E"/>
<path id="Vector_3" d="M14.3142 0C6.44265 0 0.0615234 6.38113 0.0615234 14.2527C0.0615234 22.1242 6.44265 28.5054 14.3142 28.5054C22.1858 28.5054 28.5669 22.1242 28.5669 14.2527C28.5669 6.38113 22.1858 0 14.3142 0ZM22.0809 17.4732C22.0434 18.3045 21.9086 18.8738 21.7139 19.3681C21.5117 19.8848 21.2495 20.3192 20.8152 20.7536C20.3808 21.188 19.9464 21.4577 19.4296 21.6524C18.9353 21.8471 18.3661 21.9744 17.5347 22.0119C16.7034 22.0493 16.4338 22.0568 14.3142 22.0568C12.1946 22.0568 11.925 22.0493 11.0937 22.0119C10.2623 21.9744 9.69313 21.8396 9.19881 21.6524C8.68203 21.4502 8.24763 21.188 7.81324 20.7536C7.37884 20.3192 7.10922 19.8848 6.91449 19.3681C6.71976 18.8738 6.59244 18.3045 6.55499 17.4732C6.51754 16.6419 6.51004 16.3722 6.51004 14.2527C6.51004 12.1331 6.51754 11.8635 6.55499 11.0322C6.59244 10.2008 6.72725 9.6316 6.91449 9.13729C7.11671 8.62051 7.37884 8.18612 7.81324 7.75172C8.24763 7.31732 8.68203 7.0477 9.19881 6.85297C9.69313 6.65824 10.2623 6.53092 11.0937 6.48598C11.925 6.44853 12.1946 6.44104 14.3142 6.44104C16.4338 6.44104 16.7034 6.44853 17.5347 6.48598C18.3661 6.52343 18.9353 6.65824 19.4296 6.85297C19.9464 7.05519 20.3808 7.31732 20.8152 7.75172C21.2495 8.18612 21.5192 8.62051 21.7139 9.13729C21.9086 9.6316 22.036 10.2008 22.0809 11.0322C22.1183 11.8635 22.1258 12.1331 22.1258 14.2527C22.1258 16.3722 22.1183 16.6419 22.0809 17.4732Z" fill="#D6B25E"/>
</g>
</svg>
