<svg width="42" height="40" viewBox="0 0 42 40" fill="none" xmlns="http://www.w3.org/2000/svg">
<g id="Layer_1" clip-path="url(#clip0_195_338)">
<path id="Vector" d="M41.7932 18.1925C41.3827 14.8078 40.1386 11.6661 38.0944 8.85538C34.6009 4.0465 29.8758 1.14358 24.0573 0.226202C23.9987 0.217824 22.6038 0 20.8444 0C19.7846 0 18.7961 0.0795895 17.9248 0.230391C12.8352 1.01791 8.5374 3.38046 5.14856 7.25521C2.68967 10.0618 1.0895 13.3794 0.38576 17.1159C0.293603 17.6102 0.239147 18.1171 0.180502 18.6281C0.155369 18.8795 0.126046 19.1308 0.0925351 19.3821C0.0757795 19.5287 -0.0456992 20.865 0.0129457 22.1384C0.100913 23.1145 0.184691 23.68 0.335492 24.501C1.09369 28.958 3.15045 32.8495 6.44713 36.0708L6.74454 36.3598L7.57395 35.5178C8.67982 34.3952 9.77313 33.2893 10.8539 32.1709L11.122 31.8902L10.8664 31.6012C10.6654 31.375 10.4475 31.1614 10.2381 30.9561L9.97839 30.7006C9.83177 30.554 9.69354 30.4157 9.59301 30.3403L9.33748 30.1435L9.08196 30.3403C8.98561 30.4157 8.84738 30.554 8.70496 30.6964L6.75292 32.6526C4.3024 29.5905 2.95776 26.2352 2.63521 22.3982H5.86068V21.8578C5.86068 21.3174 5.86068 20.7896 5.8523 20.2618L5.84392 19.9057L5.49205 19.8555C5.37476 19.8387 5.26585 19.8387 5.14018 19.8429C5.08573 19.8429 5.03127 19.8429 4.981 19.8429H3.40178H2.61008C2.90749 15.7294 4.32753 12.1898 6.95818 9.02712L9.02331 11.1802L9.45896 10.7404C9.83177 10.3634 10.1878 10.0073 10.5271 9.64289L10.7868 9.36224L10.5313 9.07739C10.3093 8.83024 10.0789 8.60404 9.83177 8.3569L8.71752 7.24264C11.7126 4.50309 15.3779 3.00346 19.9187 2.65159V3.65693C19.9187 4.11352 19.9187 4.57011 19.9187 5.0267L19.9103 5.47073L20.3543 5.44978C20.568 5.44141 20.7858 5.44141 21.0204 5.4456H21.3304C21.9042 5.4456 22.1053 5.44141 22.2603 5.35763L22.4069 5.27804L22.4614 5.11886C22.4949 5.01833 22.4991 4.90523 22.4991 4.28108V2.58456C25.1046 2.49241 30.2779 4.58268 32.4436 6.61012L31.9744 7.08346C31.5848 7.48141 31.1785 7.88774 30.7638 8.27731C30.7345 8.30244 30.7135 8.32757 30.6968 8.34433L30.4329 8.63336L30.7052 8.91821C30.7052 8.91821 30.7471 8.96429 30.7806 8.98942C31.1282 9.30359 31.4885 9.65965 31.9032 10.1079L32.2593 10.4472L32.5567 10.1204C32.9588 9.67222 33.3777 9.24076 33.8133 8.77997L34.3076 8.26055C37.1268 11.2975 38.7521 14.745 39.2841 18.7915H38.1908C37.642 18.7915 37.0849 18.7957 36.5361 18.7873L36.1047 18.7789V19.2104C36.1172 19.7843 36.1172 20.3623 36.1089 20.9362V21.3635L39.3972 21.3551C39.2799 25.3849 38.0693 28.7904 35.602 32.0662C35.4386 31.9238 35.3926 31.8819 35.3004 31.7813C35.0281 31.5049 34.7558 31.2284 34.4794 30.9561L34.4417 30.9184C34.1401 30.6168 33.8385 30.3194 33.5411 30.0136L33.2353 29.6994L32.9337 30.0178C32.5692 30.4032 32.1755 30.8095 31.7524 31.1949L31.4257 31.5174L31.7566 31.8693C32.8248 32.9123 34.0898 34.1481 35.3549 35.4424C35.4009 35.4885 35.4345 35.522 35.4638 35.543L35.7361 35.7692L36.0041 35.5346C36.0293 35.5095 36.067 35.476 36.1214 35.4215C40.6748 30.5247 42.5807 24.723 41.7849 18.1715L41.7932 18.1925Z" fill="#D6B25E"/>
<path id="Vector_2" d="M14.6612 24.4214C16.9316 23.7428 19.202 23.0642 21.4682 22.373C22.3856 22.0923 23.0726 21.5603 23.2653 20.9781C23.5292 20.1026 23.4789 19.2564 23.1186 18.5904C22.8128 18.0249 22.3186 17.6269 21.6902 17.4343H21.6776C20.8064 17.1745 19.9267 17.3589 18.913 18.0165C17.7861 18.7454 16.6551 19.5078 15.5409 20.2534C15.0131 20.6095 14.4853 20.9613 13.9533 21.3132L12.9396 21.9876C11.6494 22.8463 10.3634 23.7051 9.06481 24.5554L8.73389 24.7732L8.93495 25.1167C9.02292 25.2675 9.13602 25.4644 9.22818 25.6739L9.37898 26.0048L9.72666 25.9001C11.3478 25.41 12.9689 24.9282 14.59 24.4423L14.657 24.4214H14.6612Z" fill="#D6B25E"/>
<path id="Vector_3" d="M16.4332 36.2971C16.6511 35.9578 16.7642 35.5389 16.7642 35.0446C16.7642 34.3409 16.5212 33.7838 16.0479 33.3942C15.5829 33.013 14.9252 32.8203 14.0916 32.8203H11.4023V39.9122H13.1952V37.47H13.9534L15.2059 39.9122H17.0197V39.5854L15.6499 37.0009C15.9892 36.8165 16.2531 36.582 16.4374 36.2971H16.4332ZM14.9671 35.1535C14.9671 35.4049 14.8959 35.5892 14.7493 35.7274C14.6027 35.8657 14.3807 35.9369 14.0874 35.9369H13.1868V34.3535H14.0833C14.3932 34.3535 14.6194 34.4247 14.7577 34.5629C14.8959 34.7053 14.9671 34.898 14.9671 35.1577V35.1535Z" fill="#D6B25E"/>
<path id="Vector_4" d="M19.2689 32.8159H17.4761V39.9078H19.2689V32.8159Z" fill="#D6B25E"/>
<path id="Vector_5" d="M24.0865 33.0003C23.6885 32.816 23.2278 32.7239 22.7251 32.7239C22.2224 32.7239 21.7658 32.8077 21.3637 32.9794C20.949 33.1553 20.6222 33.3983 20.4002 33.7125C20.1698 34.0308 20.0567 34.3953 20.0567 34.8016C20.0567 35.5765 20.4756 36.1923 21.305 36.6405C21.5941 36.7955 21.9878 36.9547 22.4738 37.1097C23.0351 37.294 23.2906 37.4322 23.4037 37.516C23.5335 37.6165 23.5964 37.7506 23.5964 37.9475C23.5964 38.1192 23.5377 38.2407 23.4079 38.337C23.2613 38.4418 23.0434 38.4962 22.767 38.4962C21.7826 38.4962 21.6569 38.0187 21.6569 37.5998V37.3903H19.8599V37.5998C19.8599 38.0731 19.9855 38.492 20.2285 38.8523C20.4714 39.2125 20.8275 39.4974 21.2799 39.6984C21.7281 39.8995 22.2266 40 22.767 40C23.5503 40 24.1828 39.8199 24.6562 39.4638C25.1463 39.0952 25.3934 38.58 25.3934 37.9391C25.3934 37.3652 25.1924 36.8751 24.7944 36.4855C24.409 36.1085 23.8226 35.8069 22.9974 35.5598C22.5952 35.4383 22.2894 35.3084 22.0884 35.1744C21.8789 35.032 21.8538 34.8937 21.8538 34.8016C21.8538 34.634 21.9166 34.5084 22.0507 34.4078C22.1973 34.2947 22.4193 34.2361 22.7083 34.2361C22.9974 34.2361 23.2278 34.3031 23.3827 34.4371C23.5294 34.567 23.6006 34.7471 23.6006 34.9943V35.2037H25.3934V34.9943C25.3934 34.5544 25.2761 34.1565 25.0499 33.8088C24.8237 33.4611 24.5012 33.1888 24.0949 33.0003H24.0865Z" fill="#D6B25E"/>
<path id="Vector_6" d="M31.9113 32.8159H29.6828L27.9151 35.0989L27.6889 35.4089V32.8159H25.896V39.9078H27.6889V37.8761L28.1664 37.3651L29.7959 39.9078H31.9364L29.3686 36.0037L31.9113 32.8159Z" fill="#D6B25E"/>
</g>
<defs>
<clipPath id="clip0_195_338">
<rect width="41.9688" height="40" fill="white"/>
</clipPath>
</defs>
</svg>
