<svg width="34" height="40" viewBox="0 0 34 40" fill="none" xmlns="http://www.w3.org/2000/svg">
<g id="Layer_1" clip-path="url(#clip0_195_318)">
<path id="Vector" d="M31.5393 21.2099H23.9483V16.0129C23.9483 14.915 23.0571 14.0237 21.9591 14.0237H11.5651C10.4672 14.0237 9.57589 14.915 9.57589 16.0129V22.4069H1.98924C0.891281 22.4069 0 23.2982 0 24.3961V38.0108C0 39.1087 0.891281 40 1.98924 40H31.5393C32.6372 40 33.5285 39.1087 33.5285 38.0108V23.1991C33.5285 22.1012 32.6372 21.2099 31.5393 21.2099ZM2.39397 36.9774V25.4338C2.39397 25.085 2.67384 24.8052 3.0226 24.8052H8.95156C9.30032 24.8052 9.58019 25.085 9.58019 25.4338V36.9774C9.58019 37.3262 9.30032 37.606 8.95156 37.606H3.0226C2.67384 37.606 2.39397 37.3262 2.39397 36.9774ZM11.9742 17.0506C11.9742 16.7018 12.254 16.422 12.6028 16.422H20.9257C21.2745 16.422 21.5544 16.7018 21.5544 17.0506V36.9774C21.5544 37.3262 21.2745 37.606 20.9257 37.606H12.6028C12.254 37.606 11.9742 37.3262 11.9742 36.9774V17.0506ZM31.1302 36.9774C31.1302 37.3262 30.8504 37.606 30.5016 37.606H24.5727C24.2239 37.606 23.944 37.3262 23.944 36.9774V24.2368C23.944 23.8881 24.2239 23.6082 24.5727 23.6082H30.5016C30.8504 23.6082 31.1302 23.8881 31.1302 24.2368V36.9774Z" fill="#D6B25E"/>
<path id="Vector_2" d="M13.4122 7.27228L12.9214 10.2906C12.8439 10.7814 13.1797 11.2421 13.6706 11.3196C13.8643 11.3498 14.0667 11.3196 14.2389 11.2206L16.7664 9.82557L19.2895 11.2206C19.7244 11.4574 20.2712 11.2938 20.508 10.8589C20.6028 10.6867 20.6372 10.4843 20.6071 10.2906L20.1205 7.27228L22.2002 5.14096C22.5446 4.78789 22.5403 4.21523 22.183 3.87078C22.0495 3.74161 21.8773 3.65549 21.6921 3.62535L18.8547 3.19478L17.5802 0.473576C17.3261 0.025783 16.7578 -0.133528 16.3057 0.120508C16.1593 0.202317 16.0344 0.327182 15.9526 0.473576L14.6781 3.19478L11.8407 3.62535C11.3498 3.69855 11.014 4.15926 11.0872 4.65011C11.1173 4.83526 11.1991 5.00748 11.3326 5.14096L13.4122 7.27228ZM15.423 4.89984C15.7201 4.85678 15.9741 4.66303 16.099 4.39177L16.7664 2.97089L17.4338 4.39177C17.5586 4.66303 17.8127 4.85248 18.1098 4.89984L19.69 5.14096L18.5145 6.33795C18.3164 6.54462 18.226 6.8288 18.2734 7.10867L18.5403 8.74914L17.2013 8.00856C16.93 7.85786 16.6028 7.85786 16.3315 8.00856L14.9924 8.74914L15.2594 7.10867C15.3068 6.8288 15.2163 6.54031 15.0183 6.33795L13.8428 5.14096L15.4187 4.89984H15.423Z" fill="#D6B25E"/>
</g>
<defs>
<clipPath id="clip0_195_318">
<rect width="33.5285" height="40" fill="white"/>
</clipPath>
</defs>
</svg>
