<svg width="44" height="40" viewBox="0 0 44 40" fill="none" xmlns="http://www.w3.org/2000/svg">
<g id="Layer_1" clip-path="url(#clip0_195_296)">
<path id="Vector" fill-rule="evenodd" clip-rule="evenodd" d="M21.5292 15.2642C17.793 15.2642 14.7568 18.3004 14.7568 22.0366C14.7568 25.7727 17.793 28.8089 21.5292 28.8089C25.2654 28.8089 28.3016 25.7684 28.3016 22.0366C28.3016 18.3047 25.2654 15.2642 21.5292 15.2642ZM21.5292 26.4552C19.0924 26.4552 17.1105 24.4734 17.1105 22.0366C17.1105 19.5997 19.0924 17.6179 21.5292 17.6179C23.9661 17.6179 25.9479 19.5997 25.9479 22.0366C25.9479 24.4734 23.9661 26.4552 21.5292 26.4552Z" fill="#D6B25E"/>
<path id="Vector_2" fill-rule="evenodd" clip-rule="evenodd" d="M35.7738 18.0597C32.8119 18.0597 30.397 20.4703 30.397 23.4321C30.397 26.3939 32.8076 28.8089 35.7738 28.8089C38.74 28.8089 41.1462 26.3983 41.1462 23.4321C41.1462 20.4659 38.7356 18.0597 35.7738 18.0597ZM35.7738 26.4552C34.1069 26.4552 32.7507 25.099 32.7507 23.4321C32.7507 21.7653 34.1069 20.4134 35.7738 20.4134C37.4406 20.4134 38.7925 21.7696 38.7925 23.4321C38.7925 25.0946 37.4362 26.4552 35.7738 26.4552Z" fill="#D6B25E"/>
<path id="Vector_3" fill-rule="evenodd" clip-rule="evenodd" d="M7.28011 18.0597C4.31828 18.0597 1.90332 20.4703 1.90332 23.4321C1.90332 26.3939 4.31391 28.8089 7.28011 28.8089C10.2463 28.8089 12.6525 26.3983 12.6525 23.4321C12.6525 20.4659 10.2419 18.0597 7.28011 18.0597ZM7.28011 26.4552C5.61326 26.4552 4.25703 25.099 4.25703 23.4321C4.25703 21.7653 5.61326 20.4134 7.28011 20.4134C8.94696 20.4134 10.2988 21.7696 10.2988 23.4321C10.2988 25.0946 8.94259 26.4552 7.28011 26.4552Z" fill="#D6B25E"/>
<path id="Vector_4" fill-rule="evenodd" clip-rule="evenodd" d="M21.5289 0C20.8814 0 20.3521 0.529367 20.3521 1.17686V9.3186C20.3521 9.96609 20.8814 10.4955 21.5289 10.4955C22.1764 10.4955 22.7058 9.96609 22.7058 9.3186V1.17686C22.7058 0.529367 22.1764 0 21.5289 0Z" fill="#D6B25E"/>
<path id="Vector_5" fill-rule="evenodd" clip-rule="evenodd" d="M34.7545 4.06873C34.107 4.06873 33.5776 4.59809 33.5776 5.24558V14.4023C33.5776 15.0498 34.107 15.5792 34.7545 15.5792C35.402 15.5792 35.9313 15.0498 35.9313 14.4023V5.24558C35.9313 4.59809 35.402 4.06873 34.7545 4.06873Z" fill="#D6B25E"/>
<path id="Vector_6" fill-rule="evenodd" clip-rule="evenodd" d="M8.29941 4.06873C7.65192 4.06873 7.12256 4.59809 7.12256 5.24558V14.4023C7.12256 15.0498 7.65192 15.5792 8.29941 15.5792C8.9469 15.5792 9.47627 15.0498 9.47627 14.4023V5.24558C9.47627 4.59809 8.9469 4.06873 8.29941 4.06873Z" fill="#D6B25E"/>
<path id="Vector_7" fill-rule="evenodd" clip-rule="evenodd" d="M23.747 5.05745C24.1888 5.50369 24.9676 5.50369 25.4094 5.05745C25.6326 4.83433 25.7551 4.54121 25.7551 4.22621C25.7551 3.91122 25.6326 3.6181 25.4094 3.39498L22.3557 0.341274C21.9095 -0.104969 21.1395 -0.104969 20.6933 0.341274L17.6396 3.39498C17.4164 3.6181 17.2939 3.91122 17.2939 4.22621C17.2939 4.54121 17.4164 4.83433 17.6396 5.05745C18.0858 5.50369 18.8602 5.50369 19.302 5.05745L21.5245 2.83936L23.747 5.05745Z" fill="#D6B25E"/>
<path id="Vector_8" fill-rule="evenodd" clip-rule="evenodd" d="M38.9806 8.29921C38.9806 7.98422 38.8581 7.6911 38.635 7.46797L35.5813 4.41427C35.1351 3.96803 34.3651 3.96803 33.9189 4.41427L30.8652 7.46797C30.642 7.6911 30.5195 7.98422 30.5195 8.29921C30.5195 8.61421 30.642 8.90733 30.8652 9.13045C31.307 9.57669 32.0858 9.57669 32.5276 9.13045L34.7501 6.91236L36.9726 9.13045C37.4144 9.57669 38.1932 9.57669 38.635 9.13045C38.8581 8.90733 38.9806 8.61421 38.9806 8.29921Z" fill="#D6B25E"/>
<path id="Vector_9" fill-rule="evenodd" clip-rule="evenodd" d="M10.5219 9.13045C10.9637 9.57669 11.7425 9.57669 12.1843 9.13045C12.4075 8.90733 12.53 8.61421 12.53 8.29921C12.53 7.98422 12.4075 7.6911 12.1843 7.46797L9.13064 4.41427C8.6844 3.96803 7.91441 3.96803 7.46817 4.41427L4.41447 7.46797C4.19135 7.6911 4.06885 7.98422 4.06885 8.29921C4.06885 8.61421 4.19135 8.90733 4.41447 9.13045C4.85634 9.57669 5.63507 9.57669 6.07694 9.13045L8.29941 6.91236L10.5219 9.13045Z" fill="#D6B25E"/>
<path id="Vector_10" fill-rule="evenodd" clip-rule="evenodd" d="M23.5634 26.4552H19.4947C15.4785 26.4552 12.2148 29.7233 12.2148 33.7351V36.7888C12.2148 38.5606 13.6542 40 15.426 40H27.6365C29.4083 40 30.8477 38.5606 30.8477 36.7888V33.7351C30.8477 29.7189 27.5796 26.4552 23.5678 26.4552H23.5634ZM28.494 36.7888C28.494 37.2613 28.109 37.6463 27.6365 37.6463H15.426C14.9536 37.6463 14.5686 37.2613 14.5686 36.7888V33.7351C14.5686 31.0183 16.7779 28.8045 19.4991 28.8045H23.5678C26.2846 28.8045 28.4983 31.0139 28.4983 33.7351V36.7888H28.494Z" fill="#D6B25E"/>
<path id="Vector_11" fill-rule="evenodd" clip-rule="evenodd" d="M36.789 26.4552H34.7546C31.3028 26.4552 28.4897 29.2639 28.4897 32.7201V33.9932C28.4897 34.8507 28.8222 35.6557 29.4304 36.2638C30.0385 36.8719 30.8435 37.2044 31.7009 37.2044H39.8427C40.7002 37.2044 41.5052 36.8719 42.1133 36.2638C42.7214 35.6601 43.0539 34.8507 43.0539 33.9932V32.7201C43.0539 29.2683 40.2452 26.4552 36.789 26.4552ZM40.7002 33.9888C40.7002 34.2163 40.6083 34.4351 40.4508 34.5969C40.2889 34.7588 40.0702 34.8507 39.8427 34.8507H31.7009C31.4734 34.8507 31.2503 34.7588 31.0928 34.6013C30.931 34.4394 30.8435 34.2207 30.8435 33.9932V32.7201C30.8435 30.5633 32.5978 28.8089 34.7546 28.8089H36.789C38.9458 28.8089 40.7002 30.5633 40.7002 32.7201V33.9932V33.9888Z" fill="#D6B25E"/>
<path id="Vector_12" fill-rule="evenodd" clip-rule="evenodd" d="M8.29924 26.4552H6.2649C2.80871 26.4552 0 29.2639 0 32.7201V33.9932C0 34.8507 0.332495 35.6557 0.94061 36.2638C1.54873 36.8719 2.35371 37.2044 3.2112 37.2044H11.3529C12.2104 37.2044 13.0154 36.8719 13.6235 36.2638C14.2317 35.6601 14.5641 34.8507 14.5641 33.9932V32.7201C14.5641 29.2683 11.7554 26.4552 8.29924 26.4552ZM12.2104 33.9888C12.2104 34.2163 12.1186 34.4351 11.9611 34.5969C11.7992 34.7588 11.5804 34.8463 11.3529 34.8463H3.2112C2.9837 34.8463 2.76496 34.7544 2.60308 34.5969C2.44559 34.4351 2.35371 34.2163 2.35371 33.9888V32.7157C2.35371 30.5589 4.10806 28.8045 6.2649 28.8045H8.29924C10.4561 28.8045 12.2104 30.5589 12.2104 32.7157V33.9888Z" fill="#D6B25E"/>
</g>
<defs>
<clipPath id="clip0_195_296">
<rect width="43.0537" height="40" fill="white"/>
</clipPath>
</defs>
</svg>
