<svg width="34" height="40" viewBox="0 0 34 40" fill="none" xmlns="http://www.w3.org/2000/svg">
<g id="Layer_1" clip-path="url(#clip0_195_324)">
<g id="Group">
<path id="Vector" d="M2.94507 5.15152H3.60795V10.6108C3.60795 11.1837 4.0767 11.6525 4.64962 11.6525H6.32102C6.89394 11.6525 7.36269 11.1837 7.36269 10.6108V5.15625H8.02557C8.38541 5.15625 8.70738 4.95739 8.86363 4.63068C9.01988 4.30871 8.982 3.93466 8.7642 3.65057L6.22159 0.364583C6.04166 0.132576 5.77178 0 5.48295 0C5.19413 0 4.92424 0.132576 4.74432 0.364583L2.20644 3.64583C1.9839 3.92992 1.94602 4.30871 2.107 4.62595C2.26325 4.94792 2.58522 5.15152 2.94507 5.15152ZM5.48295 1.3447L7.50473 3.96307H6.7661C6.43939 3.96307 6.17424 4.22822 6.17424 4.55492V10.4593H4.7964V4.55492C4.7964 4.22822 4.53125 3.96307 4.20454 3.96307H3.46591L5.48769 1.3447H5.48295Z" fill="#D6B25E"/>
<path id="Vector_2" d="M20.5636 12.069L19.5456 13.087C19.3136 13.319 19.3136 13.6931 19.5456 13.9251C19.6592 14.0387 19.8155 14.1003 19.967 14.1003C20.1185 14.1003 20.27 14.0435 20.3884 13.9251L21.4064 12.9071C21.6384 12.6751 21.6384 12.301 21.4064 12.069C21.1744 11.837 20.8003 11.837 20.5683 12.069H20.5636Z" fill="#D6B25E"/>
<path id="Vector_3" d="M26.2738 30.9375C27.4291 30.9375 28.3713 29.9953 28.3713 28.84C28.3713 27.6847 27.4291 26.7424 26.2738 26.7424C25.1185 26.7424 24.1763 27.6847 24.1763 28.84C24.1763 29.9953 25.1185 30.9375 26.2738 30.9375ZM25.7198 28.84C25.7198 28.5322 25.9708 28.286 26.2738 28.286C26.5768 28.286 26.8278 28.5369 26.8278 28.84C26.8278 29.143 26.5768 29.3939 26.2738 29.3939C25.9708 29.3939 25.7198 29.143 25.7198 28.84Z" fill="#D6B25E"/>
<path id="Vector_4" d="M33.035 18.1819C32.7131 17.8599 32.2822 17.68 31.8277 17.68H31.6146V15.0569C31.6146 14.7728 31.5436 14.5029 31.4157 14.2567L31.5956 14.0768C31.9602 13.7122 32.1591 13.2293 32.1591 12.7179C32.1591 12.2065 31.9602 11.7188 31.5956 11.359L22.0218 1.78513C21.6572 1.42054 21.1742 1.22168 20.6629 1.22168C20.1515 1.22168 19.6638 1.42054 19.304 1.78513L7.73674 13.3524H3.22443C2.36742 13.3524 1.55777 13.6885 0.951705 14.2946C0.336174 14.9054 0 15.7198 0 16.5815V37.6469C0 38.9395 1.05114 39.9954 2.34848 39.9954H31.6951C32.7083 39.9954 33.5322 39.1715 33.5322 38.1582V19.3893C33.5322 18.9347 33.3523 18.5039 33.0303 18.1819H33.035ZM20.6581 3.38077L30.2604 12.4291L25.6676 17.1024H23.447L24.7917 15.7577C24.9669 15.5872 25.0663 15.3457 25.0663 15.1043C25.0663 14.8628 24.9716 14.626 24.7964 14.4508C24.5218 14.1762 24.375 13.8164 24.375 13.4281C24.375 13.0399 24.5265 12.68 24.7964 12.4054C24.9716 12.2349 25.071 11.9935 25.071 11.752C25.071 11.5105 24.9763 11.2738 24.8011 11.0986L22.3532 8.65066C21.9934 8.29081 21.4062 8.29081 21.0417 8.65066C20.4972 9.19516 19.5407 9.19516 18.9962 8.65066C18.6364 8.29081 18.0492 8.29081 17.6847 8.65066L9.29451 17.0408C9.29451 17.0408 9.25189 17.0882 9.22822 17.1118H6.51515L8.01136 15.3505L20.6581 3.38077ZM23.608 27.4007C23.608 26.7283 24.1572 26.1791 24.8295 26.1791H31.4015V31.5058H24.8295C24.1572 31.5058 23.608 30.9565 23.608 30.2842V27.4007ZM31.4015 24.0484H24.8295C22.9782 24.0484 21.4773 25.5541 21.4773 27.4007V30.2842C21.4773 32.1355 22.983 33.6365 24.8295 33.6365H31.4015V37.8647H2.34848C2.23011 37.8647 2.13542 37.77 2.13542 37.6516V19.626C2.4858 19.7539 2.85511 19.8202 3.2339 19.8202H31.4015V24.0484ZM22.9167 15.0096L20.8239 17.1024H11.8371L18.428 10.5115C19.4129 11.0512 20.6108 11.0512 21.5956 10.5115L22.9214 11.8372C22.6562 12.3202 22.5189 12.8599 22.5189 13.4234C22.5189 13.9868 22.6562 14.5266 22.9214 15.0096H22.9167ZM2.13542 16.591C2.13542 16.2974 2.24905 16.0228 2.46212 15.8145C2.67045 15.6061 2.94034 15.4925 3.2339 15.4925H5.60133L3.40436 17.6895H3.22917C2.62311 17.6895 2.13068 17.1971 2.13068 16.591H2.13542ZM27.9924 17.6895L29.4792 16.2027V17.6895H27.9924Z" fill="#D6B25E"/>
</g>
<path id="Vector_5" d="M19.6495 17.5711H19.6969L20.3124 16.9508C20.3361 16.9271 20.3456 16.8893 20.3314 16.8609L20.303 16.8088H20.2603C20.1988 16.7993 18.712 16.6525 18.0728 16.6241C18.0492 16.6241 18.0397 16.6099 18.035 16.6004C18.035 16.591 18.0255 16.572 18.035 16.5531C18.3617 16.0417 18.3853 15.5114 18.106 15.0616C18.0965 15.0427 18.0918 15.019 18.106 15.0001L18.3569 14.7491C18.4895 14.6165 18.5037 14.4319 18.3806 14.3088L18.248 14.1762C18.177 14.1052 18.0539 14.1052 17.9829 14.1762L17.6799 14.4792C17.6325 14.5266 17.5662 14.536 17.5094 14.5076C17.462 14.484 17.4289 14.4413 17.4194 14.3893C17.41 14.3419 17.4242 14.2946 17.462 14.2614L17.6609 14.0626C17.7982 13.9252 17.8124 13.7406 17.6893 13.6175L17.5567 13.4849C17.4857 13.4139 17.3626 13.4139 17.2916 13.4849L15.4024 15.3741C15.3314 15.4451 15.3314 15.5682 15.4024 15.6393L15.677 15.9139C15.748 15.9849 15.8711 15.9849 15.9422 15.9139L16.2547 15.6014C16.4914 15.3646 16.7139 15.2463 16.9081 15.251L16.0937 16.0654C16.0227 16.1364 16.0227 16.2595 16.0937 16.3306L16.302 16.5389C16.373 16.6099 16.4961 16.6099 16.5672 16.5389L17.3768 15.7292C17.3768 15.7292 17.4147 15.715 17.4242 15.7198C17.4336 15.7245 17.4526 15.734 17.4573 15.7576C17.4999 15.9991 17.3721 16.2832 17.0785 16.5768L16.837 16.8182C16.766 16.8893 16.766 17.0124 16.837 17.0834L17.159 17.4054H17.2253C18.0823 17.4338 19.5833 17.5663 19.6495 17.5758V17.5711Z" fill="#D6B25E"/>
</g>
<defs>
<clipPath id="clip0_195_324">
<rect width="33.5322" height="40" fill="white"/>
</clipPath>
</defs>
</svg>
