<svg width="66" height="60" viewBox="0 0 66 60" fill="none" xmlns="http://www.w3.org/2000/svg">
<g id="Layer_1" clip-path="url(#clip0_201_643)">
<path id="Vector" d="M19.481 18.9709C14.7732 18.9709 10.9385 15.1362 10.9385 10.4284C10.9385 5.72062 14.7732 1.88593 19.481 1.88593C24.1888 1.88593 28.0235 5.72062 28.0235 10.4284C28.0235 15.1362 24.1888 18.9709 19.481 18.9709ZM19.481 3.98138C15.9257 3.98138 13.0339 6.87312 13.0339 10.4284C13.0339 13.9837 15.9257 16.8754 19.481 16.8754C23.0363 16.8754 25.928 13.9837 25.928 10.4284C25.928 6.87312 23.0363 3.98138 19.481 3.98138Z" fill="#D6B25E"/>
<path id="Vector_2" d="M56.6822 16.2747C57.8347 16.2747 58.7427 15.3667 58.7427 14.2142V5.97207C58.7427 5.57393 58.603 5.24564 58.4843 5.00117L58.4145 4.86148C58.2957 4.68686 58.1001 4.49128 57.8347 4.2957L57.7229 4.23982C57.4156 4.05822 57.1083 3.98138 56.6822 3.98138H48.5099C47.3923 3.98138 46.4494 4.92434 46.4494 6.04192C46.4494 7.1595 47.3923 8.10246 48.5099 8.10246H51.8696L37.9697 21.9325H28.9593C28.2957 21.9325 27.7229 22.2049 27.3528 22.7008L19.7532 32.4796H11.3574C10.2398 32.4796 9.29688 33.4226 9.29688 34.5402C9.29688 35.6577 10.2049 36.5309 11.3574 36.5309H20.6473C21.3807 36.5309 22.0023 36.1956 22.3097 35.6438L29.8533 25.9837H38.7381C39.2829 25.9837 39.8068 25.7462 40.142 25.3481L54.6287 10.8615V14.2142C54.6287 15.3318 55.5716 16.2747 56.6892 16.2747H56.6822Z" fill="#D6B25E"/>
<path id="Vector_3" d="M1.99069 0C0.894063 0 0 0.922002 0 2.06054V57.9395C0 59.057 0.942957 60 2.06054 60H63.3178C64.4354 60 65.3783 59.057 65.3783 57.9395C65.3783 56.8219 64.4703 55.9488 63.3178 55.9488H61.4668V23.3644C61.4668 22.2468 60.5239 21.3038 59.4063 21.3038H50.1164C48.9988 21.3038 48.0559 22.2468 48.0559 23.3644V55.9488H42.0489V31.6065C42.0489 30.4889 41.1059 29.546 39.9884 29.546H30.7683C29.6508 29.546 28.7078 30.4889 28.7078 31.6065V55.8789H22.7008V41.6647C22.7008 40.5471 21.7579 39.6042 20.6403 39.6042H11.4203C10.3027 39.6042 9.35972 40.5471 9.35972 41.6647V55.9488H4.05122V2.06054C4.05122 0.942957 3.10827 0 1.99069 0ZM52.1071 25.4249H57.3457V55.9488H52.1071V25.4249ZM32.759 33.6671H37.9977V55.9488H32.759V33.6671ZM13.4109 43.6554H18.6496V55.8789H13.4109V43.6554Z" fill="#D6B25E"/>
<path id="Vector_4" d="M19.7185 14.6961L19.7743 14.752H21.4088C21.4647 14.752 21.5136 14.6961 21.5695 14.6473L21.6253 14.5425L21.5695 14.4866C21.5136 14.3818 19.7255 12.2165 18.8803 11.3225C18.8244 11.2666 18.8803 11.2666 18.8803 11.2177C18.8803 11.2177 18.8803 11.1618 18.9362 11.1618C20.0468 10.8964 20.7802 10.2677 20.9897 9.26192C20.9897 9.20604 21.0456 9.20604 21.0945 9.20604H21.7301C22.1003 9.20604 22.3657 8.9965 22.3657 8.68218V8.31198C22.3657 8.10243 22.2051 7.94178 21.9955 7.94178H21.2062C21.1015 7.94178 20.9967 7.8859 20.9408 7.73224C20.8849 7.62746 20.9408 7.52269 20.9967 7.46681C21.0526 7.41093 21.1574 7.36204 21.2062 7.36204H21.7301C22.1003 7.36204 22.3657 7.15249 22.3657 6.83817V6.46798C22.3657 6.25843 22.2051 6.09778 21.9955 6.09778H16.9874C16.7778 6.09778 16.6172 6.25843 16.6172 6.46798V7.20837C16.6172 7.41792 16.7778 7.57857 16.9874 7.57857H17.8326C18.4682 7.57857 18.9431 7.73922 19.1527 7.99766H16.9874C16.7778 7.99766 16.6172 8.15831 16.6172 8.36786V8.89172C16.6172 9.10127 16.7778 9.26192 16.9874 9.26192H19.0968C19.1527 9.26192 19.1527 9.3178 19.2016 9.3178C19.2505 9.3178 19.2016 9.37368 19.2016 9.42257C18.9362 9.79277 18.4123 10.0023 17.623 10.0023H16.9874C16.7778 10.0023 16.6172 10.163 16.6172 10.3725V11.2177L16.722 11.3225C17.7767 12.4331 19.6207 14.6473 19.7255 14.6961H19.7185Z" fill="#D6B25E"/>
</g>
<defs>
<clipPath id="clip0_201_643">
<rect width="65.3783" height="60" fill="white"/>
</clipPath>
</defs>
</svg>
