<svg width="40" height="40" viewBox="0 0 40 40" fill="none" xmlns="http://www.w3.org/2000/svg">
<g id="Layer_1" clip-path="url(#clip0_195_311)">
<g id="Group">
<path id="Vector" d="M34.2338 20.6432C34.2338 20.8203 34.2338 20.9426 34.2338 21.065C34.2338 25.1481 34.2338 29.2312 34.2338 33.3143C34.2338 34.3477 33.7909 34.7864 32.7575 34.7864C25.6542 34.7864 18.5468 34.7864 11.4435 34.7864C10.3848 34.7864 9.95457 34.3519 9.95457 33.2847C9.95457 29.2269 9.95457 25.1692 9.95457 21.1114C9.95457 20.9764 9.95457 20.8372 9.95457 20.6474C9.81537 20.7191 9.71835 20.7613 9.62977 20.8203C8.76929 21.3476 7.91302 21.8833 7.04831 22.4063C6.37764 22.8112 5.66057 22.6721 5.28937 22.0731C4.90553 21.4615 5.11222 20.7486 5.79554 20.3268C10.9711 17.1422 16.1467 13.9617 21.3138 10.7729C21.8495 10.4439 22.3388 10.4354 22.8703 10.7644C28.0417 13.9533 33.2172 17.1337 38.3928 20.3184C38.8779 20.6179 39.1605 21.027 39.0719 21.6049C38.996 22.1279 38.6754 22.4654 38.1608 22.6088C37.7939 22.71 37.4649 22.6088 37.1527 22.4105C36.3133 21.8917 35.4781 21.3771 34.6345 20.8625C34.5206 20.7908 34.4025 20.7317 34.2338 20.6389V20.6432ZM17.2392 32.3399C17.2392 32.1712 17.2392 32.0235 17.2392 31.8759C17.2392 28.8558 17.2392 25.8356 17.2392 22.8155C17.2392 21.9128 17.7158 21.4362 18.6185 21.4362C20.93 21.4362 23.2457 21.4362 25.5572 21.4362C26.481 21.4362 26.9492 21.9086 26.9492 22.8408C26.9492 25.8609 26.9492 28.8811 26.9492 31.9012C26.9492 32.0488 26.9492 32.1922 26.9492 32.3399H31.8042C31.8042 32.2386 31.8042 32.1543 31.8042 32.0699C31.8042 27.8476 31.8042 23.6296 31.8084 19.4073C31.8084 19.1584 31.6987 19.0572 31.5131 18.9433C28.4804 17.0789 25.4433 15.2187 22.419 13.3417C22.1575 13.1772 21.9845 13.2151 21.7483 13.3628C18.7408 15.2229 15.7291 17.0747 12.7132 18.9222C12.4728 19.0698 12.3715 19.2132 12.3715 19.5127C12.3842 23.6591 12.38 27.8012 12.38 31.9476V32.3441H17.235L17.2392 32.3399ZM19.6941 23.8784V32.3272H24.5027V23.8784H19.6941Z" fill="#D6B25E"/>
<path id="Vector_2" d="M27.9402 7.74855C29.4503 6.23847 30.9308 4.75793 32.4577 3.23099C31.9938 3.23099 31.5593 3.23099 31.1248 3.23099C30.9224 3.23099 30.7199 3.23942 30.5174 3.22677C29.8763 3.18459 29.3828 2.66576 29.3743 2.03305C29.3659 1.38769 29.8679 0.818248 30.5259 0.809812C32.2089 0.788722 33.8877 0.79294 35.5707 0.809812C36.1401 0.81403 36.6505 1.34551 36.6547 1.92338C36.6632 3.57687 36.6674 5.23457 36.6547 6.89228C36.6505 7.5756 36.1022 8.09443 35.4399 8.09021C34.7777 8.09021 34.2504 7.56295 34.2378 6.87962C34.2251 6.27644 34.2378 5.66903 34.2378 4.96883C34.0901 5.10803 33.9931 5.19661 33.9045 5.28941C32.3396 6.85431 30.7747 8.41922 29.2098 9.97991C28.5602 10.6295 28.1005 10.6843 27.3244 10.2161C25.692 9.23331 24.0511 8.25471 22.4272 7.26347C22.1867 7.11583 22.0222 7.12849 21.786 7.27612C16.9732 10.2499 12.1519 13.211 7.3349 16.1763C7.25054 16.2311 7.16196 16.2817 7.0776 16.3323C6.38161 16.7457 5.66032 16.6149 5.28913 16.0075C4.91372 15.3917 5.12041 14.6873 5.80796 14.2655C6.82029 13.6412 7.83263 13.0254 8.84075 12.4011C12.9702 9.85758 17.104 7.32252 21.225 4.76637C21.8409 4.38674 22.3723 4.39096 22.984 4.76637C24.629 5.78292 26.2909 6.76152 27.9486 7.75698L27.9402 7.74855Z" fill="#D6B25E"/>
</g>
<path id="Vector_3" d="M38.7346 40H1.26542C0.565222 40 0 39.4348 0 38.7346V1.26542C0 0.565222 0.565222 0 1.26542 0C1.96562 0 2.53084 0.565222 2.53084 1.26542V37.4692H38.7346C39.4348 37.4692 40 38.0344 40 38.7346C40 39.4348 39.4348 40 38.7346 40Z" fill="#D6B25E"/>
</g>
<defs>
<clipPath id="clip0_195_311">
<rect width="40" height="40" fill="white"/>
</clipPath>
</defs>
</svg>
