<svg width="57" height="60" viewBox="0 0 57 60" fill="none" xmlns="http://www.w3.org/2000/svg">
<g id="Layer_1" clip-path="url(#clip0_200_613)">
<path id="Vector" d="M12.2999 40.266H9.10193C8.23193 40.266 7.52393 40.974 7.52393 41.844C7.52393 42.714 8.23193 43.422 9.10193 43.422H12.2999C13.1699 43.422 13.8779 42.714 13.8779 41.844C13.8779 40.974 13.1699 40.266 12.2999 40.266Z" fill="#D6B25E"/>
<path id="Vector_2" d="M12.2999 50.244H9.10193C8.23193 50.244 7.52393 50.952 7.52393 51.822C7.52393 52.692 8.23193 53.4 9.10193 53.4H12.2999C13.1699 53.4 13.8779 52.692 13.8779 51.822C13.8779 50.952 13.1699 50.244 12.2999 50.244Z" fill="#D6B25E"/>
<path id="Vector_3" d="M12.2999 35.28H9.10193C8.23193 35.28 7.52393 35.988 7.52393 36.858C7.52393 37.728 8.23193 38.436 9.10193 38.436H12.2999C13.1699 38.436 13.8779 37.728 13.8779 36.858C13.8779 35.988 13.1699 35.28 12.2999 35.28Z" fill="#D6B25E"/>
<path id="Vector_4" d="M12.2999 45.258H9.10193C8.23193 45.258 7.52393 45.966 7.52393 46.836C7.52393 47.706 8.23193 48.414 9.10193 48.414H12.2999C13.1699 48.414 13.8779 47.706 13.8779 46.836C13.8779 45.966 13.1699 45.258 12.2999 45.258Z" fill="#D6B25E"/>
<path id="Vector_5" d="M43.728 28.89V1.578C43.728 0.708 43.02 0 42.15 0H1.578C0.708 0 0 0.708 0 1.578V57.618C0 58.488 0.708 59.196 1.578 59.196H36.198C37.758 59.718 39.426 60 41.16 60C49.8 60 56.82 52.98 56.82 44.34C56.82 36.576 51.15 30.12 43.728 28.89ZM3.156 56.04V3.156H40.578V28.692C35.55 28.878 31.122 31.434 28.392 35.28H18.39C17.52 35.28 16.812 35.988 16.812 36.858C16.812 37.728 17.52 38.436 18.39 38.436H26.658C26.418 39.03 26.208 39.642 26.04 40.272H18.384C17.514 40.272 16.806 40.98 16.806 41.85C16.806 42.72 17.514 43.428 18.384 43.428H25.53C25.512 43.734 25.5 44.034 25.5 44.346C25.5 44.658 25.506 44.958 25.524 45.264H18.378C17.508 45.264 16.8 45.972 16.8 46.842C16.8 47.712 17.508 48.42 18.378 48.42H26.034C26.202 49.05 26.406 49.662 26.652 50.256H18.384C17.514 50.256 16.806 50.964 16.806 51.834C16.806 52.704 17.514 53.412 18.384 53.412H28.386C29.076 54.378 29.868 55.266 30.756 56.052H3.156V56.04ZM41.16 56.844C34.356 56.844 28.656 51.354 28.656 44.34C28.656 37.326 34.17 31.836 41.16 31.836C48.15 31.836 53.664 37.428 53.664 44.34C53.664 51.252 48.072 56.844 41.16 56.844Z" fill="#D6B25E"/>
<path id="Vector_6" d="M47.8801 37.236C47.1721 36.738 46.1881 36.906 45.6901 37.62L38.5861 47.718L36.4621 45.594C35.8441 44.976 34.8481 44.976 34.2301 45.594C33.6121 46.212 33.6121 47.208 34.2301 47.826L37.6801 51.276C38.4001 51.996 39.6061 51.852 40.1341 50.994L48.2641 39.438C48.7621 38.73 48.5941 37.746 47.8801 37.248V37.236Z" fill="#D6B25E"/>
<path id="Vector_7" d="M28.2181 29.394C28.4941 29.394 28.7701 29.382 29.0701 29.364C29.3521 29.34 29.6761 29.322 29.9761 29.202C30.6121 28.95 31.1101 28.614 31.5001 28.164C32.2981 27.252 32.6101 26.196 32.4301 25.02C32.3341 24.39 32.1181 23.814 31.8961 23.286C30.8041 20.682 29.0101 18.702 26.5561 17.4C26.3821 17.31 26.2081 17.22 26.0281 17.136C26.6341 16.494 27.0961 15.756 27.4081 14.934C27.8461 13.782 27.9421 12.636 27.6901 11.532C27.1861 9.32399 25.8661 7.73399 23.7721 6.79799C22.7401 6.33599 21.6301 6.19199 20.4721 6.36599C19.2721 6.54599 18.2041 7.03799 17.2981 7.82399C15.4261 9.44999 14.6461 11.436 14.9881 13.722C15.1441 14.778 15.5701 15.75 16.2481 16.602C16.3921 16.788 16.5481 16.962 16.7101 17.13C16.0981 17.418 15.6061 17.694 15.1561 18.006C12.8941 19.548 11.3161 21.642 10.4821 24.228C10.2541 24.93 10.2001 25.632 10.3141 26.322C10.4641 27.216 10.9201 27.972 11.6581 28.572C12.2161 29.028 12.7741 29.286 13.3681 29.358C13.6681 29.394 13.9621 29.4 14.2441 29.4C14.3701 29.4 14.4961 29.4 14.6161 29.406L14.9101 29.418H27.7681L28.2181 29.394ZM17.9761 10.278C18.5761 9.41999 19.4221 8.88599 20.4961 8.68199C20.7121 8.63999 20.9461 8.63999 21.1981 8.63999C21.2941 8.63999 21.3901 8.63999 21.4861 8.63999C21.5281 8.63999 21.5641 8.63999 21.6061 8.63999C22.3981 8.63999 23.1541 8.89199 23.8441 9.37799C24.6361 9.94199 25.1521 10.728 25.3801 11.712C25.7281 13.212 25.4101 14.52 24.4381 15.606C23.7961 16.326 22.9441 16.752 21.9121 16.872C21.7741 16.89 21.6361 16.896 21.5281 16.902H21.4321C20.5321 16.896 19.8361 16.728 19.2481 16.38C18.2341 15.78 17.5861 14.916 17.3281 13.806C17.0281 12.51 17.2441 11.328 17.9761 10.284V10.278ZM22.1941 23.424C21.8941 23.64 21.5881 23.856 21.2881 24.072C20.9881 23.862 20.6821 23.646 20.3821 23.436C20.6521 22.266 20.9221 21.096 21.1861 19.926L21.2941 19.458L21.5341 20.496C21.7561 21.474 21.9781 22.446 22.2001 23.424H22.1941ZM14.5081 27.126C14.2501 27.126 13.9801 27.126 13.7281 27.096C13.3621 27.054 13.0741 26.856 12.7441 26.412C12.5641 26.166 12.5101 25.878 12.5461 25.416C12.5701 25.134 12.6721 24.858 12.7861 24.558L12.8281 24.444C13.3621 22.986 14.1901 21.744 15.2821 20.748C16.2181 19.896 17.3341 19.26 18.5881 18.858L18.9301 18.75C18.9721 18.768 19.0201 18.786 19.0621 18.804C18.8881 19.596 18.7081 20.382 18.5281 21.174C18.3121 22.116 18.0961 23.058 17.8801 23.994C17.7961 24.348 17.9941 24.552 18.1201 24.642C19.0381 25.302 19.9561 25.968 20.8741 26.628C21.0961 26.79 21.3601 26.796 21.5941 26.64L22.2301 26.214C22.6381 25.938 23.0461 25.662 23.4541 25.38C23.6641 25.236 23.8681 25.086 24.0721 24.93L24.4261 24.666C24.5521 24.57 24.7561 24.36 24.6721 23.988C24.3241 22.44 23.9761 20.886 23.6281 19.338L23.5141 18.822C23.5921 18.792 23.6701 18.762 23.7541 18.732C24.6601 19.014 25.3681 19.314 25.9741 19.68C27.7501 20.742 29.0401 22.272 29.8141 24.222C29.9761 24.624 30.1261 25.062 30.1861 25.506C30.2221 25.8 30.1861 26.052 30.0601 26.268C29.8141 26.712 29.4781 26.994 29.0461 27.132H21.4321H14.5201L14.5081 27.126Z" fill="#D6B25E"/>
</g>
<defs>
<clipPath id="clip0_200_613">
<rect width="56.82" height="60" fill="white"/>
</clipPath>
</defs>
</svg>
