<svg width="67" height="60" viewBox="0 0 67 60" fill="none" xmlns="http://www.w3.org/2000/svg">
<g id="Layer_1" clip-path="url(#clip0_201_637)">
<g id="Group">
<path id="Vector" d="M66.1077 42.0945C64.848 39.5167 61.721 38.4475 59.1358 39.6998L48.8026 44.7382C48.0776 42.5559 46.0491 41.0692 43.7202 41.0692H36.309L33.7386 39.6998C31.1681 38.3303 28.2754 37.6053 25.368 37.6053H20.1538C20.0073 35.6353 18.3596 34.0754 16.353 34.0754H3.81545C1.71366 34.0754 0 35.7891 0 37.8909V54.7858C0 56.8876 1.71366 58.6013 3.81545 58.6013H16.3603C18.2937 58.6013 19.8975 57.1512 20.1391 55.2691L31.6953 59.0919C33.5115 59.6924 35.3936 60 37.2904 60C39.9487 60 42.5192 59.4141 44.9506 58.2571L63.7202 49.0736C64.9725 48.4585 65.9099 47.3966 66.364 46.0784C66.818 44.7602 66.7301 43.3468 66.115 42.0945H66.1077ZM43.7276 48.1362H32.7426C31.732 48.1362 30.9118 48.9564 30.9118 49.9671C30.9118 50.9777 31.732 51.7979 32.7426 51.7979H43.7276C45.6975 51.7979 47.4844 50.7287 48.4291 49.0004L60.747 42.9952C61.5159 42.6218 62.446 42.9367 62.8195 43.7056C63.0026 44.0791 63.0319 44.4965 62.8927 44.892C62.7609 45.2874 62.4826 45.6024 62.1091 45.7854L43.3541 54.9616C40.0513 56.5361 36.3164 56.7704 32.8378 55.6207L20.1611 51.4244V41.2743H25.368C27.6748 41.2743 29.9744 41.8528 32.0176 42.9367L35.0568 44.5478C35.1373 44.5844 35.2252 44.621 35.3277 44.6503C35.3717 44.665 35.4156 44.6796 35.4595 44.6869C35.5474 44.7089 35.6353 44.7162 35.7378 44.7236C35.7744 44.7236 35.8184 44.7309 35.8696 44.7309H43.7202C44.6576 44.7309 45.4193 45.4925 45.4193 46.4372C45.4193 47.3819 44.6576 48.1362 43.7202 48.1362H43.7276ZM16.5068 37.8909V54.7858C16.5068 54.8664 16.4409 54.9396 16.353 54.9396H3.81545C3.7349 54.9396 3.66166 54.8737 3.66166 54.7858V37.8909C3.66166 37.8103 3.72757 37.7371 3.81545 37.7371H16.3603C16.4409 37.7371 16.5141 37.803 16.5141 37.8909H16.5068Z" fill="#D6B25E"/>
<path id="Vector_2" d="M20.1977 22.2336L21.5599 21.0546V35.5035C21.5599 36.5141 22.3801 37.3343 23.3907 37.3343C24.4013 37.3343 25.2215 36.5141 25.2215 35.5035V17.8982L41.0399 4.24753L56.8656 17.8982V37.7005C56.8656 38.1911 57.056 38.6452 57.4002 38.9967C57.7444 39.3409 58.2058 39.5313 58.6964 39.5313C59.7071 39.5313 60.5273 38.7111 60.5273 37.7005V21.0619L61.8894 22.2336C62.2629 22.5558 62.7316 22.7023 63.2223 22.673C63.7129 22.6364 64.1523 22.4167 64.4746 22.0432C64.7968 21.6697 64.9506 21.201 64.9139 20.7104C64.8773 20.2197 64.6576 19.7803 64.2841 19.4581L42.2336 0.4394C41.5525 -0.146466 40.5273 -0.146466 39.8389 0.4394L17.803 19.4581C17.0414 20.1172 16.9535 21.2743 17.6126 22.0432C18.2497 22.7755 19.4581 22.8707 20.1977 22.2336Z" fill="#D6B25E"/>
<path id="Vector_3" d="M28.6929 26.2761C28.6929 33.0868 34.2293 38.6232 41.04 38.6232C47.8507 38.6232 53.3871 33.0868 53.3871 26.2761C53.3871 19.4654 47.8507 13.929 41.04 13.929C34.2293 13.929 28.6929 19.4654 28.6929 26.2761ZM50.1868 26.2761C50.1868 31.3219 46.0858 35.4229 41.04 35.4229C35.9942 35.4229 31.8932 31.3219 31.8932 26.2761C31.8932 21.2303 35.9942 17.1292 41.04 17.1292C46.0858 17.1292 50.1868 21.2303 50.1868 26.2761Z" fill="#D6B25E"/>
</g>
<path id="Vector_4" d="M41.3696 32.208L41.4428 32.2812H43.7131C43.7863 32.2812 43.8595 32.208 43.9328 32.1348L44.006 31.9883L43.9328 31.9151C43.8595 31.7686 41.3696 28.766 40.1979 27.5211C40.1246 27.4478 40.1979 27.4478 40.1979 27.3746C40.1979 27.3746 40.1979 27.3014 40.2711 27.3014C41.809 26.9352 42.8343 26.0564 43.1272 24.665C43.1272 24.5917 43.2004 24.5917 43.2737 24.5917H44.1525C44.6651 24.5917 45.0313 24.2988 45.0313 23.8594V23.3468C45.0313 23.0538 44.8116 22.8341 44.5186 22.8341H43.4201C43.2737 22.8341 43.1272 22.7609 43.054 22.5412C42.9807 22.3947 43.054 22.2483 43.1272 22.175C43.2004 22.1018 43.3469 22.0286 43.4201 22.0286H44.1525C44.6651 22.0286 45.0313 21.7356 45.0313 21.2962V20.7836C45.0313 20.4907 44.8116 20.271 44.5186 20.271H37.5615C37.2685 20.271 37.0488 20.4907 37.0488 20.7836V21.8089C37.0488 22.1018 37.2685 22.3215 37.5615 22.3215H38.7332C39.612 22.3215 40.2711 22.5412 40.564 22.9074H37.5615C37.2685 22.9074 37.0488 23.1271 37.0488 23.42V24.1523C37.0488 24.4453 37.2685 24.665 37.5615 24.665H40.4908C40.564 24.665 40.564 24.7382 40.6373 24.7382C40.7105 24.7382 40.6373 24.8114 40.6373 24.8847C40.2711 25.3973 39.5388 25.6902 38.4403 25.6902H37.5615C37.2685 25.6902 37.0488 25.9099 37.0488 26.2029V27.3746L37.1953 27.5211C38.66 29.059 41.2231 32.1348 41.3696 32.208Z" fill="#D6B25E"/>
</g>
<defs>
<clipPath id="clip0_201_637">
<rect width="66.6423" height="60" fill="white"/>
</clipPath>
</defs>
</svg>
