<svg width="44" height="40" viewBox="0 0 44 40" fill="none" xmlns="http://www.w3.org/2000/svg">
<g id="Layer_1" clip-path="url(#clip0_195_347)">
<path id="Vector" d="M7.67572 24.3447H7.57572V24.3456C6.87125 24.2941 6.31191 23.7026 6.31191 22.9855C6.31191 22.2347 6.92493 21.6217 7.67572 21.6217H13.1511H13.1998L13.2299 21.5833L18.255 15.1641C18.2551 15.1639 18.2553 15.1637 18.2554 15.1635C18.5293 14.8248 18.9179 14.6361 19.326 14.6361H25.2507H25.2921L25.3214 14.6069L34.2988 5.62943L34.4695 5.45872H34.2281H32.2965C31.5457 5.45872 30.9326 4.84571 30.9326 4.09491C30.9326 3.34412 31.5457 2.7311 32.2965 2.7311H37.7579C38.0038 2.7311 38.2364 2.79564 38.4482 2.92098L38.4482 2.921L38.4501 2.92208L38.519 2.96085C38.6793 3.07846 38.7937 3.19378 38.8867 3.33254L38.936 3.41775L38.9363 3.41816C39.0381 3.59212 39.1079 3.83861 39.1079 4.08102L39.1079 4.08136L39.1264 9.54251C39.1264 9.54262 39.1264 9.54274 39.1264 9.54285C39.1262 10.2935 38.5133 10.9063 37.7626 10.9063C37.0118 10.9063 36.3988 10.2933 36.3988 9.54251V7.61547V7.37405L36.2281 7.54476L26.8291 16.9437L26.8291 16.9437L26.8273 16.9456C26.5822 17.2036 26.224 17.3591 25.8575 17.3591H20.0394H19.9907L19.9606 17.3975L14.9855 23.7484L14.9851 23.748L14.9795 23.7569C14.7583 24.11 14.3285 24.3447 13.8599 24.3447H7.67572Z" fill="#D6B25E" stroke="white" stroke-width="0.2"/>
<path id="Vector_2" d="M40.9191 37.0724V37.1724H41.0191H42.1077C42.8585 37.1724 43.4715 37.7854 43.4715 38.5362C43.4715 39.287 42.8585 39.9 42.1077 39.9H1.46381C0.713016 39.9 0.1 39.287 0.1 38.5362V1.46381C0.1 0.712188 0.704577 0.1 1.45455 0.1C2.20534 0.1 2.81836 0.713017 2.81836 1.46381V37.0724V37.1724H2.91836H6.21656H6.31656V37.0724V27.729C6.31656 26.9782 6.92958 26.3652 7.68037 26.3652H13.8645C14.6153 26.3652 15.2283 26.9782 15.2283 27.729V37.0724V37.1724H15.3283H19.062H19.162V37.0724V21.0724C19.162 20.3216 19.775 19.7086 20.5258 19.7086H26.7099C27.4607 19.7086 28.0737 20.3216 28.0737 21.0724V37.0724V37.1724H28.1737H31.9074H32.0074V37.0724V15.6016C32.0074 14.8508 32.6204 14.2378 33.3712 14.2378H39.5553C40.3061 14.2378 40.9191 14.8508 40.9191 15.6016V37.0724ZM12.4961 29.1928V29.0928H12.3961H9.13492H9.03491V29.1928V37.0724V37.1724H9.13492H12.3961H12.4961V37.0724V29.1928ZM21.8803 37.0724V37.1724H21.9803H25.2368H25.3368V37.0724V22.5362V22.4362H25.2368H21.9803H21.8803V22.5362V37.0724ZM34.7257 37.0724V37.1724H34.8257H38.0869H38.1869V37.0724V17.0608V16.9608H38.0869H34.8257H34.7257V17.0608V37.0724Z" fill="#D6B25E" stroke="white" stroke-width="0.2"/>
</g>
<defs>
<clipPath id="clip0_195_347">
<rect width="43.5715" height="40" fill="white"/>
</clipPath>
</defs>
</svg>
