<svg width="71" height="60" viewBox="0 0 71 60" fill="none" xmlns="http://www.w3.org/2000/svg">
<g id="Layer_1" clip-path="url(#clip0_201_629)">
<g id="Group">
<path id="Vector" d="M16.0294 25.6238C16.5624 25.6238 16.9873 25.4461 17.2345 25.1217L40.0541 4.12515L62.8969 25.1448C63.2136 25.4538 63.6231 25.6238 64.0788 25.6238C64.1175 25.6238 64.1561 25.6238 64.1947 25.6238C64.6505 25.5929 65.0908 25.3998 65.4153 25.0676C66.0873 24.3955 66.0564 23.2677 65.3226 22.5338L59.0962 16.8328V10.3669C59.0962 9.34725 58.3006 8.55157 57.2809 8.55157H50.0889L41.2747 0.417156C40.6026 -0.146768 39.5829 -0.146768 38.8877 0.432606L14.7702 22.5415C14.0673 23.2445 14.0209 24.3569 14.6621 25.029C15.0792 25.5543 15.6354 25.6161 16.0294 25.6161V25.6238ZM54.0595 12.1823H55.62V13.6114L54.0595 12.1823Z" fill="#D6B25E"/>
<path id="Vector_2" d="M68.9687 41.8617C66.8984 39.7914 63.6153 39.5751 61.3364 41.3441L59.1734 42.9664V24.7354C59.1734 23.7157 58.3778 22.92 57.3581 22.92C56.3384 22.92 55.5427 23.7157 55.5427 24.7354V42.2171C54.3453 40.9115 52.6535 40.1468 50.7918 40.1468H44.6118C41.5759 40.1468 38.7331 38.9726 36.601 36.8405L33.9745 34.214C31.4948 31.7343 28.173 30.1893 24.5655 29.8416V24.0402C24.5655 23.0205 23.7698 22.2248 22.7501 22.2248C21.7304 22.2248 20.9347 23.0205 20.9347 24.0402V29.718H15.1564C14.3144 27.0143 11.8501 25.1603 8.99961 25.1603H1.81537C0.811124 25.1603 0 25.9405 0 26.8984V56.4851C0 57.5048 0.795674 58.3005 1.81537 58.3005H9.07686C11.6184 58.3005 13.9127 56.7478 14.9092 54.438C21.0892 59.2661 26.937 60.0077 29.9343 60.0077H49.6331C53.6114 60.0077 57.5743 58.679 60.7957 56.2611L68.2889 50.6219C69.6794 49.579 70.5214 48.0108 70.6064 46.3577C70.7764 44.72 70.1815 43.0823 68.9687 41.8694V41.8617ZM53.7505 46.6049C53.4338 46.6744 53.0861 46.713 52.7231 46.713H38.7408C36.6628 46.713 34.6389 46.1259 32.8621 45.0212L28.6443 42.4179C28.2657 42.1475 27.7945 42.0548 27.331 42.1553C26.8443 42.2634 26.4272 42.5647 26.1877 42.9818C25.9637 43.3681 25.9019 43.847 26.0023 44.2951C26.1105 44.7663 26.3963 45.168 26.7748 45.3843L31.0236 48.0108C33.3488 49.4554 35.9676 50.1815 38.8258 50.1815H52.808C53.9282 50.1815 55.1796 49.8803 56.1916 49.3704C56.516 49.2391 56.7941 49.0614 57.0568 48.8992C57.1495 48.8374 57.2499 48.7756 57.4044 48.6752L63.4994 44.0479C64.4419 43.3604 65.7397 43.4376 66.5353 44.2256C67.0452 44.7354 67.2769 45.3457 67.2229 45.9637C67.0838 46.798 66.7516 47.416 66.2032 47.8409L58.7177 53.4724C56.1375 55.3882 52.9085 56.4465 49.6408 56.4465H29.9421C27.0529 56.4465 21.3596 55.6431 15.535 50.282V33.2715H23.2986C26.4272 33.2715 29.2468 34.438 31.4639 36.6551L34.0904 39.2816C36.8482 42.0394 40.6875 43.623 44.6195 43.623H50.8768C52.499 43.623 53.7737 44.8976 53.7737 46.5199C53.7737 46.5431 53.7737 46.574 53.7582 46.6049H53.7505ZM11.9042 52.4295C11.6261 53.6887 10.4751 54.6698 9.14639 54.6698H3.54577V28.7138H9.06914C10.5987 28.7138 11.8888 30.0039 11.8888 31.5334V52.4295H11.9042Z" fill="#D6B25E"/>
</g>
<path id="Vector_3" d="M44.612 26.5894H42.3718C41.4448 26.5894 40.7495 27.2847 40.7495 28.2117V30.4519C40.7495 31.3789 41.4448 32.0742 42.3718 32.0742H44.612C45.539 32.0742 46.2343 31.3789 46.2343 30.4519V28.2117C46.2343 27.2847 45.4618 26.5894 44.612 26.5894ZM43.8395 29.6794H43.2215V29.0614H43.8395V29.6794Z" fill="#D6B25E"/>
<path id="Vector_4" d="M35.5734 20.0232C34.6464 20.0232 33.9512 20.7184 33.9512 21.6454V23.8857C33.9512 24.8127 34.6464 25.5079 35.5734 25.5079H37.8137C38.7407 25.5079 39.4359 24.8127 39.4359 23.8857V21.6454C39.4359 20.7184 38.7407 20.0232 37.8137 20.0232H35.5734ZM37.0412 23.1132H36.4232V22.4952H37.0412V23.1132Z" fill="#D6B25E"/>
<path id="Vector_5" d="M35.5734 26.5894C34.6464 26.5894 33.9512 27.2847 33.9512 28.2117V30.4519C33.9512 31.3789 34.6464 32.0742 35.5734 32.0742H37.8137C38.7407 32.0742 39.4359 31.3789 39.4359 30.4519V28.2117C39.4359 27.2847 38.7407 26.5894 37.8137 26.5894H35.5734ZM37.0412 29.6794H36.4232V29.0614H37.0412V29.6794Z" fill="#D6B25E"/>
<path id="Vector_6" d="M46.2343 21.6454C46.2343 20.7184 45.539 20.0232 44.612 20.0232H42.3718C41.4448 20.0232 40.7495 20.7184 40.7495 21.6454V23.8857C40.7495 24.8127 41.4448 25.5079 42.3718 25.5079H44.612C45.539 25.5079 46.2343 24.8127 46.2343 23.8857V21.6454ZM43.8395 23.1132H43.2215V22.4952H43.8395V23.1132Z" fill="#D6B25E"/>
</g>
<defs>
<clipPath id="clip0_201_629">
<rect width="70.6296" height="60" fill="white"/>
</clipPath>
</defs>
</svg>
