<svg width="38" height="40" viewBox="0 0 38 40" fill="none" xmlns="http://www.w3.org/2000/svg">
<g id="Layer_1" clip-path="url(#clip0_195_286)">
<path id="Vector" d="M8.20011 26.844H6.06811C5.48811 26.844 5.01611 27.316 5.01611 27.896C5.01611 28.476 5.48811 28.948 6.06811 28.948H8.20011C8.78011 28.948 9.25211 28.476 9.25211 27.896C9.25211 27.316 8.78011 26.844 8.20011 26.844Z" fill="#D6B25E"/>
<path id="Vector_2" d="M8.20011 33.496H6.06811C5.48811 33.496 5.01611 33.968 5.01611 34.548C5.01611 35.128 5.48811 35.6 6.06811 35.6H8.20011C8.78011 35.6 9.25211 35.128 9.25211 34.548C9.25211 33.968 8.78011 33.496 8.20011 33.496Z" fill="#D6B25E"/>
<path id="Vector_3" d="M8.20011 23.52H6.06811C5.48811 23.52 5.01611 23.992 5.01611 24.572C5.01611 25.152 5.48811 25.624 6.06811 25.624H8.20011C8.78011 25.624 9.25211 25.152 9.25211 24.572C9.25211 23.992 8.78011 23.52 8.20011 23.52Z" fill="#D6B25E"/>
<path id="Vector_4" d="M8.20011 30.172H6.06811C5.48811 30.172 5.01611 30.644 5.01611 31.224C5.01611 31.804 5.48811 32.276 6.06811 32.276H8.20011C8.78011 32.276 9.25211 31.804 9.25211 31.224C9.25211 30.644 8.78011 30.172 8.20011 30.172Z" fill="#D6B25E"/>
<path id="Vector_5" d="M29.152 19.26V1.052C29.152 0.472 28.68 0 28.1 0H1.052C0.472 0 0 0.472 0 1.052V38.412C0 38.992 0.472 39.464 1.052 39.464H24.132C25.172 39.812 26.284 40 27.44 40C33.2 40 37.88 35.32 37.88 29.56C37.88 24.384 34.1 20.08 29.152 19.26ZM2.104 37.36V2.104H27.052V19.128C23.7 19.252 20.748 20.956 18.928 23.52H12.26C11.68 23.52 11.208 23.992 11.208 24.572C11.208 25.152 11.68 25.624 12.26 25.624H17.772C17.612 26.02 17.472 26.428 17.36 26.848H12.256C11.676 26.848 11.204 27.32 11.204 27.9C11.204 28.48 11.676 28.952 12.256 28.952H17.02C17.008 29.156 17 29.356 17 29.564C17 29.772 17.004 29.972 17.016 30.176H12.252C11.672 30.176 11.2 30.648 11.2 31.228C11.2 31.808 11.672 32.28 12.252 32.28H17.356C17.468 32.7 17.604 33.108 17.768 33.504H12.256C11.676 33.504 11.204 33.976 11.204 34.556C11.204 35.136 11.676 35.608 12.256 35.608H18.924C19.384 36.252 19.912 36.844 20.504 37.368H2.104V37.36ZM27.44 37.896C22.904 37.896 19.104 34.236 19.104 29.56C19.104 24.884 22.78 21.224 27.44 21.224C32.1 21.224 35.776 24.952 35.776 29.56C35.776 34.168 32.048 37.896 27.44 37.896Z" fill="#D6B25E"/>
<path id="Vector_6" d="M31.9202 24.824C31.4482 24.492 30.7922 24.604 30.4602 25.08L25.7242 31.812L24.3082 30.396C23.8962 29.984 23.2322 29.984 22.8202 30.396C22.4082 30.808 22.4082 31.472 22.8202 31.884L25.1202 34.184C25.6002 34.664 26.4042 34.568 26.7562 33.996L32.1762 26.292C32.5082 25.82 32.3962 25.164 31.9202 24.832V24.824Z" fill="#D6B25E"/>
<path id="Vector_7" d="M18.8119 19.596C18.9959 19.596 19.1799 19.588 19.3799 19.576C19.5679 19.56 19.7839 19.548 19.9839 19.468C20.4079 19.3 20.7399 19.076 20.9999 18.776C21.5319 18.168 21.7399 17.464 21.6199 16.68C21.5559 16.26 21.4119 15.876 21.2639 15.524C20.5359 13.788 19.3399 12.468 17.7039 11.6C17.5879 11.54 17.4719 11.48 17.3519 11.424C17.7559 10.996 18.0639 10.504 18.2719 9.95601C18.5639 9.18801 18.6279 8.42401 18.4599 7.68801C18.1239 6.21601 17.2439 5.15601 15.8479 4.53201C15.1599 4.22401 14.4199 4.12801 13.6479 4.24401C12.8479 4.36401 12.1359 4.69202 11.5319 5.21602C10.2839 6.30002 9.76393 7.62402 9.99193 9.14802C10.0959 9.85202 10.3799 10.5 10.8319 11.068C10.9279 11.192 11.0319 11.308 11.1399 11.42C10.7319 11.612 10.4039 11.796 10.1039 12.004C8.59593 13.032 7.54393 14.428 6.98793 16.152C6.83593 16.62 6.79993 17.088 6.87593 17.548C6.97593 18.144 7.27993 18.648 7.77193 19.048C8.14393 19.352 8.51593 19.524 8.91193 19.572C9.11193 19.596 9.30793 19.6 9.49593 19.6C9.57993 19.6 9.66393 19.6 9.74393 19.604L9.93993 19.612H18.5119L18.8119 19.596ZM11.9839 6.85201C12.3839 6.28001 12.9479 5.92402 13.6639 5.78802C13.8079 5.76002 13.9639 5.76001 14.1319 5.76001C14.1959 5.76001 14.2599 5.76001 14.3239 5.76001C14.3519 5.76001 14.3759 5.76001 14.4039 5.76001C14.9319 5.76001 15.4359 5.92802 15.8959 6.25202C16.4239 6.62802 16.7679 7.15202 16.9199 7.80802C17.1519 8.80802 16.9399 9.68002 16.2919 10.404C15.8639 10.884 15.2959 11.168 14.6079 11.248C14.5159 11.26 14.4239 11.264 14.3519 11.268H14.2879C13.6879 11.264 13.2239 11.152 12.8319 10.92C12.1559 10.52 11.7239 9.94402 11.5519 9.20402C11.3519 8.34001 11.4959 7.55201 11.9839 6.85601V6.85201ZM14.7959 15.616C14.5959 15.76 14.3919 15.904 14.1919 16.048C13.9919 15.908 13.7879 15.764 13.5879 15.624C13.7679 14.844 13.9479 14.064 14.1239 13.284L14.1959 12.972L14.3559 13.664C14.5039 14.316 14.6519 14.964 14.7999 15.616H14.7959ZM9.67193 18.084C9.49993 18.084 9.31993 18.084 9.15193 18.064C8.90793 18.036 8.71593 17.904 8.49593 17.608C8.37593 17.444 8.33993 17.252 8.36393 16.944C8.37993 16.756 8.44793 16.572 8.52393 16.372L8.55193 16.296C8.90793 15.324 9.45993 14.496 10.1879 13.832C10.8119 13.264 11.5559 12.84 12.3919 12.572L12.6199 12.5C12.6479 12.512 12.6799 12.524 12.7079 12.536C12.5919 13.064 12.4719 13.588 12.3519 14.116C12.2079 14.744 12.0639 15.372 11.9199 15.996C11.8639 16.232 11.9959 16.368 12.0799 16.428C12.6919 16.868 13.3039 17.312 13.9159 17.752C14.0639 17.86 14.2399 17.864 14.3959 17.76L14.8199 17.476C15.0919 17.292 15.3639 17.108 15.6359 16.92C15.7759 16.824 15.9119 16.724 16.0479 16.62L16.2839 16.444C16.3679 16.38 16.5039 16.24 16.4479 15.992C16.2159 14.96 15.9839 13.924 15.7519 12.892L15.6759 12.548C15.7279 12.528 15.7799 12.508 15.8359 12.488C16.4399 12.676 16.9119 12.876 17.3159 13.12C18.4999 13.828 19.3599 14.848 19.8759 16.148C19.9839 16.416 20.0839 16.708 20.1239 17.004C20.1479 17.2 20.1239 17.368 20.0399 17.512C19.8759 17.808 19.6519 17.996 19.3639 18.088H14.2879H9.67993L9.67193 18.084Z" fill="#D6B25E"/>
</g>
<defs>
<clipPath id="clip0_195_286">
<rect width="37.88" height="40" fill="white"/>
</clipPath>
</defs>
</svg>
