<svg width="32" height="40" viewBox="0 0 32 40" fill="none" xmlns="http://www.w3.org/2000/svg">
<g id="Layer_1" clip-path="url(#clip0_195_333)">
<path id="Vector" d="M31.791 7.47636C31.7334 7.10995 31.437 6.82177 31.0706 6.7806C26.0273 6.18776 22.9438 7.6575 21.6305 9.34132C22.3633 8.29151 22.7708 6.99056 22.7708 5.59904C22.7708 3.2524 21.5934 1.14865 19.6955 0.102955C19.4444 -0.0329033 19.148 -0.0370202 18.8968 0.102955C16.9989 1.14865 15.8215 3.25652 15.8215 5.59904C15.8215 6.58299 16.0273 7.52165 16.402 8.35738C14.854 6.92469 11.7951 5.89135 7.15537 6.7312C6.78897 6.79707 6.51313 7.10172 6.4802 7.47224C6.44726 7.84277 6.66546 8.18859 7.0154 8.32033C7.73586 8.59204 8.41927 9.80242 9.07797 10.9716C10.0743 12.7419 11.1035 14.5698 12.9602 14.895C14.1583 15.1009 15.4468 14.6192 16.896 13.4006C17.6329 14.0552 18.1187 14.8004 18.341 15.6155C13.9606 16.0972 10.5601 19.8683 10.5601 24.2981C10.5601 24.8621 10.6136 25.422 10.7206 25.9654L9.53084 25.6402C8.39868 25.3314 7.19242 25.6402 6.03557 26.5212L4.33117 27.8263C4.22824 27.5463 4.03063 27.3158 3.77126 27.1635C3.47485 26.9906 3.12902 26.9453 2.79967 27.0358L0.963525 27.5299C0.634172 27.6205 0.358338 27.8304 0.185427 28.1268C0.0125167 28.4233 -0.0327694 28.7691 0.0578028 29.0984L2.72145 39.0367C2.80791 39.366 3.02199 39.646 3.3184 39.8148C3.51602 39.9259 3.73421 39.9877 3.95653 39.9877C4.06768 39.9877 4.17884 39.9712 4.29 39.9424L6.12614 39.4484C6.4555 39.3578 6.73545 39.1478 6.90424 38.8514C7.07715 38.555 7.12244 38.2092 7.03186 37.8757L6.98246 37.6987C7.93759 37.0317 8.81449 36.8547 9.88901 37.0976L14.3106 38.1104C15.5539 38.3944 16.7272 38.238 17.7564 37.6452L28.8145 31.2598C30.1978 30.4611 30.6753 28.6867 29.8766 27.2993C29.4897 26.6324 28.8639 26.1507 28.1146 25.949C28.0405 25.9284 27.9664 25.9119 27.8882 25.8996C27.987 25.3644 28.0405 24.8209 28.0405 24.2857C28.0405 19.9506 24.8705 16.2907 20.6177 15.6484C20.9224 15.1256 21.3382 14.5863 21.8363 14.0758C23.3307 15.1668 24.6235 15.5538 25.7927 15.2738C27.6247 14.8374 28.5387 12.9436 29.4238 11.1157C30.0084 9.90534 30.6136 8.6538 31.3176 8.34091C31.6552 8.18859 31.8528 7.8263 31.7993 7.45989L31.791 7.47636ZM27.9252 10.4158C27.2089 11.8938 26.4678 13.4253 25.4016 13.6806C24.8087 13.8246 24.0347 13.5818 23.1084 12.9642C23.833 12.4167 24.5782 11.9967 25.0928 11.8485C25.3028 11.7868 25.4798 11.6468 25.5868 11.4533C25.6939 11.2598 25.7186 11.0375 25.6568 10.8234C25.5292 10.387 25.0722 10.1318 24.6317 10.2594C24.043 10.4323 23.2525 10.844 22.4703 11.3916C22.5115 11.1116 22.6185 10.8399 22.7832 10.5723C23.4995 9.42778 25.5127 8.25446 29.0656 8.29974C28.6498 8.91728 28.2999 9.64598 27.9293 10.4076L28.1146 10.5023L27.9293 10.4158H27.9252ZM5.33158 37.9622L4.21177 38.2627L1.74162 29.0408L2.86142 28.7403L5.33158 37.9622ZM20.1196 8.60028V6.2701C20.1196 5.81312 19.749 5.4426 19.2921 5.4426C18.8351 5.4426 18.4646 5.81312 18.4646 6.2701V8.60028C17.8264 7.78513 17.4683 6.71885 17.4683 5.60316C17.4683 4.03873 18.1475 2.63074 19.2921 1.80736C20.4366 2.63074 21.1158 4.03873 21.1158 5.60316C21.1158 6.72296 20.7577 7.78925 20.1196 8.60028ZM9.09032 27.2458L16.8095 29.3454C17.5876 29.5595 18.0487 30.3623 17.8388 31.1445C17.6247 31.9226 16.8178 32.3878 16.0397 32.1738L11.9145 31.0498C11.7005 30.9922 11.4781 31.021 11.2888 31.1281C11.0953 31.2392 10.9594 31.4163 10.9018 31.6303C10.8441 31.8444 10.873 32.0667 10.9841 32.2602C11.0953 32.4496 11.2723 32.5896 11.4823 32.6472L15.6074 33.7711C15.875 33.8452 16.1632 33.8905 16.4267 33.8823C17.6659 33.8823 18.8104 33.1248 19.2921 31.9885L26.7354 27.6904C27.0236 27.5258 27.3571 27.4846 27.6782 27.5669C28.0035 27.6534 28.2711 27.8592 28.4357 28.1433C28.7774 28.7361 28.5757 29.5019 27.9788 29.8436L16.9207 36.2289C16.2538 36.6159 15.5168 36.7065 14.6688 36.513L10.2472 35.5002C9.81079 35.4014 9.39498 35.352 8.99152 35.352C8.13108 35.352 7.32417 35.5785 6.52548 36.0396L4.79226 29.5636L7.03598 27.8469C7.77703 27.2787 8.46867 27.077 9.09032 27.2458ZM19.2921 19.6089C21.8816 19.6089 23.9853 21.7168 23.9853 24.3022C23.9853 26.8876 21.8775 28.9955 19.2921 28.9955C19.1891 28.9955 19.0903 28.9955 18.9874 28.9873C18.5675 28.3821 17.9541 27.9416 17.2418 27.7481L15.7062 27.3281C14.9899 26.4842 14.5988 25.4097 14.5988 24.3022C14.5988 21.7127 16.7066 19.6089 19.2921 19.6089ZM26.1344 26.1384C26.0562 26.1754 25.9779 26.2125 25.9038 26.2577L25.1792 26.6777C25.4839 25.9284 25.6403 25.1174 25.6403 24.3063C25.6403 20.8069 22.7914 17.958 19.2921 17.958C15.7927 17.958 12.9438 20.8069 12.9438 24.3063C12.9438 25.1297 13.1084 25.9531 13.4172 26.7106L12.5485 26.4718C12.3262 25.772 12.2109 25.0433 12.2109 24.3022C12.2109 20.3953 15.3892 17.217 19.2962 17.217C23.2031 17.217 26.3814 20.3953 26.3814 24.3022C26.3814 24.9239 26.299 25.5414 26.1426 26.1384H26.1344ZM21.3793 9.69538C20.8071 10.6093 20.6506 11.6509 20.9347 12.6472C20.6424 12.9272 20.3666 13.2153 20.1196 13.5076V10.8316C20.6383 10.4817 21.0911 10.0536 21.4658 9.55952C21.437 9.60481 21.4081 9.64598 21.3793 9.69126V9.69538ZM18.4646 12.6225C18.2175 12.3631 17.9458 12.112 17.6453 11.8773C17.7647 11.2557 17.7194 10.6258 17.5177 10.033C17.8017 10.3335 18.1187 10.6011 18.4604 10.8316V12.6184L18.4646 12.6225ZM13.1784 10.0124C12.9849 10.1153 12.8408 10.2923 12.7791 10.5023C12.7173 10.7123 12.7379 10.9387 12.8408 11.1322C12.9438 11.3257 13.1208 11.4698 13.3308 11.5315C13.8742 11.6962 14.6646 11.9762 15.4674 12.4167C14.5864 13.0836 13.8371 13.3677 13.2361 13.2606C12.1533 13.0713 11.3176 11.5892 10.5107 10.1565C10.0949 9.41543 9.69963 8.71144 9.24677 8.12272C12.7791 7.85512 14.8705 8.90493 15.6568 10C15.8503 10.2717 15.9779 10.5558 16.0315 10.8481C15.1751 10.4035 14.3641 10.1194 13.8083 9.95063C13.5984 9.88476 13.3719 9.90946 13.1784 10.0124Z" fill="#D6B25E"/>
<path id="Vector_2" d="M19.465 27.7686L19.5144 27.8139H20.7989C20.8483 27.8139 20.8935 27.785 20.9141 27.7398L20.9388 27.6574L20.8977 27.608C20.84 27.538 19.4444 25.8419 18.8104 25.1379C18.7898 25.1132 18.7939 25.0885 18.798 25.0761C18.798 25.0638 18.8145 25.0391 18.8474 25.0308C19.7161 24.8373 20.2925 24.3104 20.4736 23.5487C20.4819 23.5199 20.5024 23.4911 20.5395 23.4911H21.0623C21.3423 23.4911 21.544 23.31 21.544 23.0629V22.7871C21.544 22.6348 21.4205 22.5113 21.2682 22.5113H20.6342C20.5395 22.5113 20.4571 22.4536 20.4242 22.3631C20.3995 22.289 20.4077 22.2066 20.453 22.1449C20.4942 22.0872 20.556 22.0543 20.6301 22.0543H21.0418C21.3299 22.0543 21.5358 21.8731 21.5358 21.6261V21.3503C21.5358 21.198 21.4123 21.0745 21.2599 21.0745H17.3242C17.1718 21.0745 17.0483 21.198 17.0483 21.3503V21.9225C17.0483 22.0749 17.1718 22.1984 17.3242 22.1984H17.9746C18.4728 22.1984 18.8227 22.3054 19.0203 22.5113H17.3242C17.1718 22.5113 17.0483 22.6348 17.0483 22.7871V23.2194C17.0483 23.3717 17.1718 23.4952 17.3242 23.4952H19.0121C19.0492 23.4952 19.0697 23.5199 19.0739 23.5323C19.078 23.5446 19.0903 23.5734 19.0697 23.6064C18.8639 23.9069 18.4316 24.0633 17.8223 24.0633H17.3242C17.1718 24.0633 17.0483 24.1869 17.0483 24.3392V25.0061L17.1183 25.0802C17.9788 25.9983 19.4073 27.7027 19.4691 27.7768L19.465 27.7686Z" fill="#D6B25E"/>
</g>
<defs>
<clipPath id="clip0_195_333">
<rect width="31.7991" height="40" fill="white"/>
</clipPath>
</defs>
</svg>
