<svg width="29" height="29" viewBox="0 0 29 29" fill="none" xmlns="http://www.w3.org/2000/svg">
<path id="Vector" d="M14.6955 0C6.82399 0 0.442871 6.38112 0.442871 14.2527C0.442871 22.1242 6.82399 28.5054 14.6955 28.5054C22.5671 28.5054 28.9482 22.1242 28.9482 14.2527C28.9482 6.38112 22.5671 0 14.6955 0ZM11.1829 20.6038H8.23204V11.0771H11.1829V20.6038ZM9.6925 9.82634C8.72635 9.82634 7.94743 9.03993 7.94743 8.06628C7.94743 7.09264 8.72635 6.30623 9.6925 6.30623C10.6587 6.30623 11.4376 7.09264 11.4376 8.06628C11.4376 9.03993 10.6587 9.82634 9.6925 9.82634ZM22.2376 20.6038H19.3016V15.6008C19.3016 14.2302 18.7774 13.4663 17.6989 13.4663C16.5155 13.4663 15.9014 14.2677 15.9014 15.6008V20.6038H13.0703V11.0771H15.9014V12.3578C15.9014 12.3578 16.7552 10.785 18.7699 10.785C20.7846 10.785 22.2376 12.0208 22.2376 14.5747V20.6113V20.6038Z" fill="#D6B25E"/>
</svg>
