<svg width="30" height="29" viewBox="0 0 30 29" fill="none" xmlns="http://www.w3.org/2000/svg">
<path id="Vector" d="M15.0046 0C7.13308 0 0.751953 6.38113 0.751953 14.2527C0.751953 22.1242 7.13308 28.5054 15.0046 28.5054C22.8762 28.5054 29.2573 22.1242 29.2573 14.2527C29.2573 6.38113 22.8762 0 15.0046 0ZM21.0412 11.152C21.236 15.5334 17.9705 20.4241 12.1811 20.4241C10.421 20.4241 8.78079 19.9073 7.4027 19.0235C9.0579 19.2183 10.7056 18.7614 12.0163 17.7353C10.6532 17.7129 9.49979 16.8066 9.10284 15.5708C9.58966 15.6607 10.069 15.6382 10.5109 15.5184C9.01296 15.2188 7.9794 13.8707 8.00936 12.4252C8.42878 12.6574 8.90811 12.7997 9.42489 12.8147C8.03932 11.886 7.64237 10.0585 8.45873 8.65047C9.9941 10.5378 12.2934 11.7736 14.8848 11.9084C14.4279 9.96115 15.9109 8.08126 17.9181 8.08126C18.8168 8.08126 19.6257 8.45574 20.1949 9.0624C20.9064 8.92009 21.573 8.66545 22.1722 8.30595C21.94 9.03244 21.4457 9.64658 20.8016 10.0286C21.4307 9.95366 22.0299 9.78889 22.5916 9.54173C22.1722 10.1709 21.6479 10.7176 21.0337 11.152H21.0412Z" fill="#D6B25E"/>
</svg>
