<svg width="29" height="29" viewBox="0 0 29 29" fill="none" xmlns="http://www.w3.org/2000/svg">
<g id="Group">
<path id="Vector" d="M14.386 0C6.51443 0 0.133301 6.38112 0.133301 14.2527C0.133301 22.1242 6.51443 28.5054 14.386 28.5054C22.2575 28.5054 28.6387 22.1242 28.6387 14.2527C28.6387 6.38112 22.2575 0 14.386 0ZM22.5946 18.4019C22.3998 19.1434 21.8157 19.7276 21.0817 19.9298C19.7485 20.2893 14.386 20.2893 14.386 20.2893C14.386 20.2893 9.02344 20.2893 7.69029 19.9298C6.95631 19.7351 6.37212 19.1434 6.17739 18.4019C5.81789 17.0538 5.8179 14.2527 5.8179 14.2527C5.8179 14.2527 5.81789 11.4441 6.17739 10.1035C6.37212 9.36198 6.95631 8.77779 7.69029 8.57558C9.02344 8.21608 14.386 8.21607 14.386 8.21607C14.386 8.21607 19.7485 8.21608 21.0817 8.57558C21.8157 8.77031 22.3998 9.36198 22.5946 10.1035C22.9541 11.4516 22.9541 14.2527 22.9541 14.2527C22.9541 14.2527 22.9541 17.0613 22.5946 18.4019Z" fill="#D6B25E"/>
<path id="Vector_2" d="M12.6333 16.8065V11.7061L17.1121 14.26L12.6333 16.8065Z" fill="#D6B25E"/>
</g>
</svg>
